<svg width="26" height="25" viewBox="0 0 26 25" fill="none" xmlns="http://www.w3.org/2000/svg">
<rect x="1.87345" y="1.13652" width="22.1701" height="22.1701" rx="5.03866" stroke="#393939" stroke-width="2.01546"/>
<g clip-path="url(#clip0_1527_3707)">
<path d="M17.6611 10.8949V7.51882C17.6611 6.77779 17.0585 6.17517 16.3174 6.17517H6.24011C5.49908 6.17517 4.89648 6.77776 4.89648 7.51882V14.237C4.89648 14.9781 5.49908 15.5807 6.24014 15.5807H13.7734C14.2135 17.1292 15.6374 18.268 17.3252 18.268C17.9747 18.268 18.6134 18.097 19.173 17.7733C19.3334 17.6804 19.3886 17.4751 19.2954 17.3144C19.2025 17.1536 18.9969 17.0982 18.8364 17.192C18.3792 17.4564 17.8566 17.5961 17.3252 17.5961C15.6581 17.5961 14.302 16.24 14.302 14.5729C14.302 12.9059 15.6581 11.5498 17.3252 11.5498C18.9922 11.5498 20.3484 12.9059 20.3484 14.5729V14.9089C20.3484 15.2792 20.0469 15.5807 19.6765 15.5807C19.3062 15.5807 19.0047 15.2792 19.0047 14.9089V13.5652C19.0047 13.3795 18.8545 13.2293 18.6688 13.2293C18.5785 13.2293 18.4973 13.2659 18.437 13.3238C18.1401 13.0592 17.7532 12.8934 17.3252 12.8934C16.3991 12.8934 15.6456 13.6469 15.6456 14.5729C15.6456 15.499 16.3991 16.2525 17.3252 16.2525C17.8258 16.2525 18.2709 16.0279 18.5789 15.6793C18.8222 16.025 19.2226 16.2525 19.6766 16.2525C20.4176 16.2525 21.0202 15.6499 21.0202 14.9088V14.5729C21.0202 12.6489 19.5415 11.0654 17.6611 10.8949ZM6.24014 6.84698H16.3175C16.3314 6.84698 16.3432 6.85413 16.3569 6.85498L11.555 10.7966C11.3841 10.9042 11.1364 10.8818 11.0252 10.8136L6.20106 6.85492C6.21469 6.8541 6.22628 6.84698 6.24014 6.84698ZM16.9893 10.8949C15.1089 11.0654 13.6302 12.6489 13.6302 14.5729C13.6302 14.6863 13.6371 14.7981 13.6472 14.9089H6.24014C5.8698 14.9089 5.56833 14.6074 5.56833 14.2371V7.51882C5.56833 7.42369 5.58933 7.33384 5.62517 7.25178L10.6287 11.3549C10.8242 11.4825 11.0489 11.5498 11.2788 11.5498C11.4999 11.5498 11.7161 11.4875 11.9064 11.3694C11.9254 11.3592 11.9434 11.3471 11.9605 11.333L16.9324 7.25171C16.9683 7.33384 16.9893 7.42369 16.9893 7.51886V10.8949H16.9893ZM17.3252 15.5807C16.7695 15.5807 16.3175 15.1286 16.3175 14.5729C16.3175 14.0172 16.7695 13.5652 17.3252 13.5652C17.8809 13.5652 18.3329 14.0172 18.3329 14.5729C18.3329 15.1286 17.8809 15.5807 17.3252 15.5807Z" fill="#393939"/>
</g>
<defs>
<clipPath id="clip0_1527_3707">
<rect width="16.1237" height="16.1237" fill="white" transform="translate(4.89648 4.15979)"/>
</clipPath>
</defs>
</svg>
