<svg width="25" height="25" viewBox="0 0 25 25" fill="none" xmlns="http://www.w3.org/2000/svg">
<g clip-path="url(#clip0_1527_3699)">
<path d="M17.8821 0.128784H7.04525C3.36512 0.128784 0.371094 3.12296 0.371094 6.80309V17.6399C0.371094 21.3202 3.36512 24.3142 7.04525 24.3142H17.8821C21.5625 24.3142 24.5565 21.32 24.5565 17.6399V6.80309C24.5567 3.12296 21.5625 0.128784 17.8821 0.128784ZM22.4108 17.6399C22.4108 20.137 20.3793 22.1684 17.8822 22.1684H7.04525C4.54834 22.1685 2.51694 20.137 2.51694 17.6399V6.80309C2.51694 4.30618 4.54834 2.27463 7.04525 2.27463H17.8821C20.3791 2.27463 22.4107 4.30618 22.4107 6.80309V17.6399H22.4108Z" fill="#393939"/>
<path d="M12.4634 5.98999C9.02706 5.98999 6.23145 8.7856 6.23145 12.222C6.23145 15.6582 9.02706 18.4536 12.4634 18.4536C15.8998 18.4536 18.6954 15.6582 18.6954 12.222C18.6954 8.7856 15.8998 5.98999 12.4634 5.98999ZM12.4634 16.3077C10.2104 16.3077 8.37729 14.4748 8.37729 12.2218C8.37729 9.96868 10.2103 8.1357 12.4634 8.1357C14.7166 8.1357 16.5495 9.96868 16.5495 12.2218C16.5495 14.4748 14.7164 16.3077 12.4634 16.3077Z" fill="#393939"/>
<path d="M18.9569 4.17053C18.5435 4.17053 18.1374 4.33791 17.8454 4.63117C17.552 4.92301 17.3833 5.32929 17.3833 5.74415C17.3833 6.15773 17.5521 6.56387 17.8454 6.85713C18.1372 7.14897 18.5435 7.31778 18.9569 7.31778C19.3718 7.31778 19.7766 7.14897 20.0699 6.85713C20.3632 6.56387 20.5305 6.15759 20.5305 5.74415C20.5305 5.32929 20.3632 4.92301 20.0699 4.63117C19.7781 4.33791 19.3718 4.17053 18.9569 4.17053Z" fill="#393939"/>
</g>
<defs>
<clipPath id="clip0_1527_3699">
<rect width="24.1856" height="24.1856" fill="white" transform="translate(0.371094 0.128784)"/>
</clipPath>
</defs>
</svg>
