<svg width="16" height="16" viewBox="0 0 16 16" fill="none" xmlns="http://www.w3.org/2000/svg">
<path d="M12.6667 6.68356V3.33334C12.6667 2.598 12.0687 2 11.3333 2H1.33331C0.597969 2 0 2.59797 0 3.33334V10C0 10.7353 0.597969 11.3333 1.33334 11.3333H8.80881C9.24556 12.87 10.6585 14 12.3333 14C12.9779 14 13.6117 13.8304 14.167 13.5091C14.3262 13.417 14.3809 13.2132 14.2884 13.0537C14.1963 12.8942 13.9922 12.8392 13.833 12.9323C13.3792 13.1947 12.8607 13.3333 12.3333 13.3333C10.679 13.3333 9.33331 11.9876 9.33331 10.3333C9.33331 8.67906 10.679 7.33334 12.3333 7.33334C13.9876 7.33334 15.3333 8.67906 15.3333 10.3333V10.6667C15.3333 11.0342 15.0342 11.3333 14.6667 11.3333C14.2992 11.3333 14 11.0342 14 10.6667V9.33334C14 9.14909 13.8509 9 13.6667 9C13.577 9 13.4964 9.03628 13.4366 9.09375C13.142 8.83122 12.758 8.66666 12.3333 8.66666C11.4144 8.66666 10.6667 9.41437 10.6667 10.3333C10.6667 11.2522 11.4144 12 12.3333 12C12.8301 12 13.2718 11.7772 13.5774 11.4312C13.8189 11.7742 14.2162 12 14.6667 12C15.402 12 16 11.402 16 10.6667V10.3333C16 8.42403 14.5326 6.85275 12.6667 6.68356ZM1.33334 2.66666H11.3333C11.3472 2.66666 11.3588 2.67375 11.3725 2.67459L6.60744 6.58594C6.43784 6.69272 6.19206 6.67056 6.08172 6.60288L1.29456 2.67453C1.30809 2.67372 1.31959 2.66666 1.33334 2.66666ZM12 6.68356C10.134 6.85275 8.66666 8.42403 8.66666 10.3333C8.66666 10.4458 8.67356 10.5567 8.68353 10.6667H1.33334C0.965844 10.6667 0.666687 10.3675 0.666687 10V3.33334C0.666687 3.23894 0.687531 3.14978 0.723094 3.06834L5.68819 7.14C5.88219 7.26662 6.10519 7.33337 6.33337 7.33337C6.55278 7.33337 6.76728 7.27153 6.95609 7.15434C6.97497 7.14425 6.99287 7.13222 7.00981 7.11822L11.9436 3.06828C11.9792 3.14978 12 3.23894 12 3.33337V6.68356H12ZM12.3333 11.3333C11.7819 11.3333 11.3333 10.8848 11.3333 10.3333C11.3333 9.78191 11.7819 9.33334 12.3333 9.33334C12.8848 9.33334 13.3333 9.78191 13.3333 10.3333C13.3333 10.8848 12.8848 11.3333 12.3333 11.3333Z" fill="#FE520A"/>
</svg>
