<svg width="21" height="20" viewBox="0 0 21 20" fill="none" xmlns="http://www.w3.org/2000/svg">
<path fill-rule="evenodd" clip-rule="evenodd" d="M2.69432 1.66379C3.95385 0.411507 6.02789 0.634021 7.0825 2.04362L8.38861 3.78647C9.24761 4.9332 9.17103 6.5353 8.1516 7.54851L7.90528 7.79483C7.87735 7.89823 7.87452 8.00681 7.89701 8.11153C7.96221 8.53378 8.31512 9.42798 9.79303 10.8976C11.2709 12.3672 12.1713 12.7191 12.5998 12.7854C12.7078 12.8071 12.8193 12.8039 12.9258 12.776L13.3481 12.3559C14.2547 11.4554 15.6457 11.2867 16.7676 11.8963L18.7443 12.9727C20.4385 13.8917 20.8659 16.1934 19.4791 17.573L18.0085 19.0344C17.5448 19.4949 16.9218 19.8789 16.1621 19.9503C14.2888 20.1252 9.92447 19.9017 5.33654 15.3406C1.05496 11.0829 0.233209 7.36947 0.128679 5.53968C0.076932 4.61443 0.513681 3.83201 1.07048 3.27935L2.69432 1.66379ZM5.84056 2.97404C5.31584 2.27338 4.33885 2.21749 3.78826 2.76498L2.16339 4.3795C1.82186 4.71896 1.65833 5.09362 1.67903 5.45171C1.76183 6.90581 2.4242 10.2559 6.43152 14.2405C10.6355 18.4196 14.5176 18.5448 16.0182 18.4041C16.3246 18.3762 16.6289 18.2168 16.9135 17.9342L18.3831 16.4718C18.9813 15.8778 18.8499 14.7952 18.0033 14.3357L16.0265 13.2604C15.4801 12.9644 14.8405 13.0617 14.4431 13.457L13.9722 13.9259L13.4236 13.3753C13.9722 13.9259 13.9711 13.9269 13.9701 13.9269L13.9691 13.929L13.9659 13.9321L13.9587 13.9383L13.9432 13.9528C13.8995 13.9933 13.8524 14.03 13.8024 14.0625C13.7196 14.1173 13.6099 14.1784 13.4723 14.2291C13.1928 14.3336 12.8223 14.3895 12.3649 14.3191C11.4676 14.1815 10.2784 13.5698 8.69806 11.9988C7.11872 10.4277 6.50189 9.24583 6.36321 8.34956C6.2918 7.89212 6.34872 7.52161 6.45429 7.24217C6.51239 7.08493 6.59557 6.93813 6.7006 6.80749L6.73372 6.77127L6.74821 6.75574L6.75442 6.74953L6.75753 6.74643L6.7596 6.74436L7.05766 6.44836C7.50062 6.00644 7.56272 5.27473 7.14563 4.71689L5.84056 2.97404Z" fill="#FE520A"/>
</svg>
