<svg width="25" height="25" viewBox="0 0 25 25" fill="none" xmlns="http://www.w3.org/2000/svg">
<rect x="1.6259" y="1.13652" width="22.1701" height="22.1701" rx="5.03866" stroke="#393939" stroke-width="2.01546"/>
<path d="M17.6295 19.5898C17.5036 19.5898 17.3785 19.5525 17.2712 19.4797L13.217 16.7297L11.0426 18.2943C10.872 18.4169 10.6522 18.4478 10.4542 18.377C10.2564 18.3061 10.1062 18.1422 10.0526 17.9391L8.96083 13.8015L5.05969 12.3098C4.81409 12.2159 4.65122 11.9809 4.64943 11.7179C4.64764 11.455 4.80729 11.2178 5.05169 11.1206L19.8853 5.21817C19.9526 5.18957 20.0238 5.17307 20.0956 5.16864C20.1213 5.16711 20.1471 5.16711 20.1727 5.16856C20.3215 5.17741 20.4676 5.23799 20.5816 5.34981C20.5935 5.36139 20.6047 5.37322 20.6153 5.38555C20.7098 5.49346 20.7617 5.62502 20.7715 5.75905C20.7739 5.79275 20.7737 5.82687 20.7707 5.861C20.7687 5.88533 20.7652 5.90959 20.7602 5.93367L18.2564 19.071C18.2162 19.282 18.0725 19.4587 17.8741 19.541C17.7954 19.5737 17.7122 19.5898 17.6295 19.5898ZM13.573 15.4287L17.1843 17.8783L19.1325 7.65597L12.096 14.4269L13.5559 15.4172C13.5618 15.4209 13.5674 15.4248 13.573 15.4287ZM10.5667 14.884L11.0502 16.7162L12.092 15.9665L10.7279 15.0412C10.6645 14.9983 10.6102 14.9449 10.5667 14.884ZM7.04374 11.7017L9.72246 12.7258C9.91435 12.7992 10.0592 12.9605 10.1116 13.1592L10.4513 14.4466C10.4669 14.2981 10.5342 14.1584 10.6436 14.0531L17.3483 7.6015L7.04374 11.7017Z" fill="#393939"/>
</svg>
