<svg width="12" height="11" viewBox="0 0 12 11" fill="none" xmlns="http://www.w3.org/2000/svg">
<path d="M9.66034 10.7337C9.56661 10.7337 9.47351 10.7059 9.39365 10.6518L6.37637 8.60511L4.75807 9.76956C4.63115 9.86082 4.46756 9.88381 4.32018 9.83112C4.173 9.7783 4.06121 9.65638 4.02131 9.5052L3.20874 6.4258L0.305342 5.31563C0.122562 5.24571 0.00134106 5.07084 1.10522e-05 4.87514C-0.00131895 4.67944 0.117495 4.50293 0.299389 4.43054L11.3392 0.0377233C11.3893 0.0164432 11.4423 0.00415642 11.4957 0.000863072C11.5149 -0.000276932 11.5341 -0.000276898 11.5531 0.000799773C11.6638 0.00738646 11.7726 0.05248 11.8574 0.1357C11.8663 0.144314 11.8746 0.153117 11.8825 0.1623C11.9528 0.242607 11.9915 0.340521 11.9987 0.440271C12.0005 0.465351 12.0004 0.490748 11.9982 0.516145C11.9967 0.534258 11.9941 0.552308 11.9904 0.570232L10.1269 10.3476C10.097 10.5047 9.99006 10.6362 9.84236 10.6974C9.78378 10.7217 9.7219 10.7337 9.66034 10.7337ZM6.64129 7.63686L9.32898 9.45992L10.7789 1.85204L5.54208 6.89124L6.62863 7.62831C6.633 7.63104 6.63718 7.63395 6.64129 7.63686ZM4.40391 7.23146L4.76377 8.59504L5.5391 8.03713L4.52386 7.34844C4.47668 7.31652 4.43627 7.27675 4.40391 7.23146ZM1.78196 4.86304L3.77558 5.62526C3.9184 5.67986 4.02619 5.79994 4.0652 5.94776L4.31803 6.90593C4.32962 6.79541 4.37972 6.69142 4.4611 6.61308L9.45109 1.81151L1.78196 4.86304Z" fill="#FE520A"/>
</svg>
