<svg width="25" height="25" viewBox="0 0 25 25" fill="none" xmlns="http://www.w3.org/2000/svg">
<g clip-path="url(#clip0_1527_3695)">
<rect x="0.123535" y="0.128784" width="24.1856" height="24.1856" rx="8.06186" fill="#393939"/>
<path d="M12.2163 0.128784C5.53789 0.128784 0.123535 5.54314 0.123535 12.2216C0.123535 18.9 5.53789 24.3144 12.2163 24.3144C18.8947 24.3144 24.3091 18.9 24.3091 12.2216C24.3091 5.54314 18.8947 0.128784 12.2163 0.128784ZM19.9633 12.5442C19.9633 16.044 19.9633 17.7942 18.8759 18.8811C17.7889 19.9685 16.0388 19.9685 12.5389 19.9685H11.8937C8.39387 19.9685 6.64372 19.9685 5.55679 18.8811C4.46938 17.7942 4.46938 16.044 4.46938 12.5442V11.8989C4.46938 8.39911 4.46938 6.64897 5.55679 5.56203C6.64372 4.47463 8.39387 4.47463 11.8937 4.47463H12.5389C16.0388 4.47463 17.7889 4.47463 18.8759 5.56203C19.9633 6.64897 19.9633 8.39911 19.9633 11.8989V12.5442Z" fill="#393939"/>
<path fill-rule="evenodd" clip-rule="evenodd" d="M18.9497 16.5295H17.3205C16.6987 16.5295 16.5168 16.0343 15.4121 14.9296C14.4449 13.9978 14.0308 13.8773 13.789 13.8773C13.4614 13.8773 13.3633 13.9699 13.3633 14.4351V15.896C13.3633 16.2972 13.2353 16.5295 12.1993 16.5295C10.4734 16.5295 8.57656 15.4819 7.23003 13.549C5.21057 10.719 4.6582 8.57901 4.6582 8.14719C4.6582 7.90608 4.75083 7.68677 5.2167 7.68677H6.84589C7.26204 7.68677 7.41869 7.8693 7.57535 8.32019C8.37223 10.6407 9.71536 12.669 10.2677 12.669C10.4748 12.669 10.5701 12.5736 10.5701 12.0478V9.64901C10.5095 8.54427 9.92241 8.45368 9.92241 8.06137C9.92241 7.87884 10.0784 7.68677 10.3372 7.68677H12.8974C13.2428 7.68677 13.3633 7.87134 13.3633 8.28545V11.5125C13.3633 11.8578 13.5132 11.9784 13.6167 11.9784C13.8237 11.9784 13.9967 11.8578 14.3761 11.4784C15.5503 10.1666 16.3785 8.14719 16.3785 8.14719C16.4821 7.90608 16.6735 7.68677 17.0876 7.68677H18.7168C19.2092 7.68677 19.3127 7.94014 19.2092 8.28545C19.0021 9.2349 17.0174 12.0301 17.0174 12.0301C16.8444 12.3067 16.7756 12.4449 17.0174 12.7555C17.1897 12.9966 17.7598 13.4802 18.1392 13.929C18.8393 14.7157 19.3665 15.3798 19.5136 15.8375C19.6478 16.2972 19.4149 16.5295 18.9497 16.5295Z" fill="white"/>
</g>
<defs>
<clipPath id="clip0_1527_3695">
<rect x="0.123535" y="0.128784" width="24.1856" height="24.1856" rx="8.06186" fill="white"/>
</clipPath>
</defs>
</svg>
