<?xml version="1.0" encoding="UTF-8"?>
<svg width="1920" height="1200" viewBox="0 0 1920 1200" xmlns="http://www.w3.org/2000/svg">
    <g id="g1">
        <path id="path1" fill="#ffffff" fill-rule="evenodd" stroke="none" d="M 0 1236 L 1920 1236 L 1920 -33 L 0 -33 Z"/>
        <path id="path2" fill="#ffffff" fill-rule="evenodd" stroke="none" d="M 560.983215 790.527222 L 1331.562378 790.527222 L 1331.562378 781.869019 L 560.983215 781.869019 Z"/>
        <path id="-" fill="#9101f9" fill-rule="evenodd" stroke="none" d="M 1460.894043 1034.688232 L 1460.894043 866.372986 L 1476.283936 866.372986 L 1476.283936 942.933044 L 1505.310669 942.933044 C 1514.141968 942.933044 1521.220093 945.595398 1526.5448 950.920227 C 1531.869629 956.244995 1534.531982 963.322998 1534.531982 972.154419 L 1534.531982 1005.466797 C 1534.531982 1014.298218 1531.869629 1021.376221 1526.5448 1026.70105 C 1521.220093 1032.025879 1514.141968 1034.688232 1505.310669 1034.688232 Z M 1546.610107 866.372986 L 1562 866.372986 L 1562 1034.688232 L 1546.610107 1034.688232 Z M 1505.505249 1019.298279 C 1509.661255 1019.298279 1512.973022 1018.064514 1515.440674 1015.596924 C 1517.908325 1013.129272 1519.141968 1009.817627 1519.141968 1005.661621 L 1519.141968 971.959595 C 1519.141968 967.80365 1517.908325 964.491943 1515.440674 962.024353 C 1512.973022 959.556763 1509.661255 958.322998 1505.505249 958.322998 L 1476.283936 958.322998 L 1476.283936 1019.298279 Z M 1366.021973 881.568115 L 1366.021973 866.372986 L 1442.97168 866.372986 L 1442.97168 881.568115 L 1412.191772 881.568115 L 1412.191772 1034.688232 L 1396.80188 1034.688232 L 1396.80188 881.568115 Z M 1273.292603 894.620361 C 1273.292603 885.78894 1275.955078 878.710938 1281.279907 873.386108 C 1286.604736 868.061279 1293.682739 865.398926 1302.514038 865.398926 L 1319.852051 865.398926 C 1328.683472 865.398926 1335.761353 868.061279 1341.086304 873.386108 C 1346.411255 878.710938 1349.073608 885.78894 1349.073608 894.620361 L 1349.073608 1006.440857 C 1349.073608 1015.272278 1346.411255 1022.350281 1341.086304 1027.675049 C 1335.761353 1032.999878 1328.683472 1035.662231 1319.852051 1035.662231 L 1302.514038 1035.662231 C 1293.682739 1035.662231 1286.604736 1032.999878 1281.279907 1027.675049 C 1275.955078 1022.350281 1273.292603 1015.272278 1273.292603 1006.440857 Z M 1302.319214 1020.272339 L 1320.046875 1020.272339 C 1324.202881 1020.272339 1327.514526 1019.038574 1329.982178 1016.570984 C 1332.449829 1014.103333 1333.683472 1010.791626 1333.683472 1006.635681 L 1333.683472 894.425537 C 1333.683472 890.269531 1332.449829 886.957825 1329.982178 884.490234 C 1327.514526 882.022644 1324.202881 880.788818 1320.046875 880.788818 L 1302.319214 880.788818 C 1298.163208 880.788818 1294.851563 882.022644 1292.384033 884.490234 C 1289.916382 886.957825 1288.682617 890.269531 1288.682617 894.425537 L 1288.682617 1006.635681 C 1288.682617 1010.791626 1289.916382 1014.103333 1292.384033 1016.570984 C 1294.851563 1019.038574 1298.163208 1020.272339 1302.319214 1020.272339 Z M 1176.667236 1006.440857 L 1176.667236 894.620361 C 1176.667236 885.78894 1179.32959 878.710938 1184.654419 873.386108 C 1189.979248 868.061279 1197.057251 865.398926 1205.888672 865.398926 L 1221.278564 865.398926 C 1230.109985 865.398926 1237.187988 868.061279 1242.512817 873.386108 C 1247.837646 878.710938 1250.5 885.78894 1250.5 894.620361 L 1250.5 918.387085 L 1235.109985 910.594666 L 1235.109985 894.425537 C 1235.109985 890.269531 1233.876343 886.957825 1231.408569 884.490234 C 1228.94104 882.022644 1225.629395 880.788818 1221.473389 880.788818 L 1205.693848 880.788818 C 1201.537842 880.788818 1198.226196 882.022644 1195.758545 884.490234 C 1193.290894 886.957825 1192.057129 890.269531 1192.057129 894.425537 L 1192.057129 1006.635681 C 1192.057129 1010.791626 1193.290894 1014.103333 1195.758545 1016.570984 C 1198.226196 1019.038574 1201.537842 1020.272339 1205.693848 1020.272339 L 1221.473389 1020.272339 C 1225.629395 1020.272339 1228.94104 1019.038574 1231.408569 1016.570984 C 1233.876343 1014.103333 1235.109985 1010.791626 1235.109985 1006.635681 L 1235.109985 993.388672 L 1250.5 1001.18103 L 1250.5 1006.440857 C 1250.5 1015.272278 1247.837646 1022.350281 1242.512817 1027.675049 C 1237.187988 1032.999878 1230.109985 1035.662231 1221.278564 1035.662231 L 1205.888672 1035.662231 C 1197.057251 1035.662231 1189.979248 1032.999878 1184.654419 1027.675049 C 1179.32959 1022.350281 1176.667236 1015.272278 1176.667236 1006.440857 Z M 1101.470825 879.814819 C 1102.250122 875.788696 1104.133179 872.541931 1107.120361 870.074341 C 1110.107422 867.60675 1113.678833 866.372986 1117.834839 866.372986 L 1123.289429 866.372986 L 1156.796753 1034.688232 L 1140.432739 1034.688232 L 1132.835083 995.921143 L 1094.457764 995.921143 L 1086.860107 1034.688232 L 1070.690918 1034.688232 Z M 1130.497437 980.53125 L 1113.743896 893.64624 L 1096.79541 980.53125 Z M 1032.898071 866.372986 C 1041.72937 866.372986 1048.807373 869.035339 1054.132202 874.360168 C 1059.456909 879.684937 1062.119385 886.762939 1062.119385 895.59436 L 1062.119385 928.906738 C 1062.119385 937.738159 1059.456909 944.816162 1054.132202 950.140991 C 1048.807373 955.46582 1041.72937 958.128174 1032.898071 958.128174 L 1003.676636 958.128174 L 1003.676636 1034.688232 L 988.286682 1034.688232 L 988.286682 866.372986 Z M 1003.676636 942.933044 L 1033.092773 942.933044 C 1037.248779 942.933044 1040.560547 941.699219 1043.028076 939.231689 C 1045.495605 936.764038 1046.729492 933.452332 1046.729492 929.296387 L 1046.729492 895.204712 C 1046.729492 891.048828 1045.495605 887.737061 1043.028076 885.26947 C 1040.560547 882.80188 1037.248779 881.568115 1033.092773 881.568115 L 1003.676636 881.568115 Z M 901.206848 866.372986 L 901.206848 956.764526 L 938.220581 877.671875 C 940.038879 873.905579 942.701233 870.918518 946.207886 868.710693 C 949.714355 866.502808 953.545654 865.398926 957.701538 865.398926 L 962.571777 865.398926 L 926.532043 936.699158 L 963.545837 1034.688232 L 946.987 1034.688232 L 917.376038 954.816406 L 901.206848 986.765137 L 901.206848 1034.688232 L 885.816956 1034.688232 L 885.816956 866.372986 Z M 756.853149 866.372986 L 756.853149 942.933044 L 799.906006 942.933044 L 799.906006 866.372986 L 815.295959 866.372986 L 815.295959 1034.688232 L 799.906006 1034.688232 L 799.906006 958.128174 L 756.853149 958.128174 L 756.853149 1034.688232 L 741.463196 1034.688232 L 741.463196 866.372986 Z M 641.915649 894.620361 C 641.915649 885.78894 644.578003 878.710938 649.902832 873.386108 C 655.2276 868.061279 662.305603 865.398926 671.137024 865.398926 L 688.475098 865.398926 C 697.306519 865.398926 704.384521 868.061279 709.709351 873.386108 C 715.034119 878.710938 717.696472 885.78894 717.696472 894.620361 L 717.696472 1006.440857 C 717.696472 1015.272278 715.034119 1022.350281 709.709351 1027.675049 C 704.384521 1032.999878 697.306519 1035.662231 688.475098 1035.662231 L 671.137024 1035.662231 C 662.305603 1035.662231 655.2276 1032.999878 649.902832 1027.675049 C 644.578003 1022.350281 641.915649 1015.272278 641.915649 1006.440857 Z M 670.942261 1020.272339 L 688.669861 1020.272339 C 692.825867 1020.272339 696.137573 1019.038574 698.605164 1016.570984 C 701.072815 1014.103333 702.306519 1010.791626 702.306519 1006.635681 L 702.306519 894.425537 C 702.306519 890.269531 701.072815 886.957825 698.605164 884.490234 C 696.137573 882.022644 692.825867 880.788818 688.669861 880.788818 L 670.942261 880.788818 C 666.786316 880.788818 663.474548 882.022644 661.007019 884.490234 C 658.539368 886.957825 657.305603 890.269531 657.305603 894.425537 L 657.305603 1006.635681 C 657.305603 1010.791626 658.539368 1014.103333 661.007019 1016.570984 C 663.474548 1019.038574 666.786316 1020.272339 670.942261 1020.272339 Z M 527.952209 1034.688232 L 535.549805 1019.298279 L 541.394043 1019.298279 C 543.991516 1019.298279 545.290222 1017.999573 545.290222 1015.4021 L 545.290222 895.59436 C 545.290222 886.762939 547.952576 879.684937 553.277405 874.360168 C 558.602234 869.035339 565.680237 866.372986 574.511658 866.372986 L 616.200867 866.372986 L 616.200867 1034.688232 L 601.005676 1034.688232 L 601.005676 881.568115 L 574.12207 881.568115 C 569.966125 881.568115 566.654358 882.80188 564.186707 885.26947 C 561.719177 887.737061 560.485413 891.048828 560.485413 895.204712 L 560.485413 1017.155396 C 560.485413 1022.480225 558.89447 1026.733521 555.712524 1029.915405 C 552.530579 1033.09729 548.277405 1034.688232 542.952576 1034.688232 Z M 455.872742 879.814819 C 456.652008 875.788696 458.535095 872.541931 461.522247 870.074341 C 464.509369 867.60675 468.08078 866.372986 472.236755 866.372986 L 477.691467 866.372986 L 511.198608 1034.688232 L 494.834625 1034.688232 L 487.23703 995.921143 L 448.85965 995.921143 L 441.262054 1034.688232 L 425.092896 1034.688232 Z M 484.899353 980.53125 L 468.145782 893.64624 L 451.197296 980.53125 Z M 331 1006.440857 L 331 894.620361 C 331 885.78894 333.662354 878.710938 338.987152 873.386108 C 344.312012 868.061279 351.389984 865.398926 360.221405 865.398926 L 375.611359 865.398926 C 384.442719 865.398926 391.520721 868.061279 396.845551 873.386108 C 402.170349 878.710938 404.832764 885.78894 404.832764 894.620361 L 404.832764 918.387085 L 389.44281 910.594666 L 389.44281 894.425537 C 389.44281 890.269531 388.209015 886.957825 385.741394 884.490234 C 383.273834 882.022644 379.962128 880.788818 375.806152 880.788818 L 360.026611 880.788818 C 355.870636 880.788818 352.558929 882.022644 350.091309 884.490234 C 347.623749 886.957825 346.389954 890.269531 346.389954 894.425537 L 346.389954 1006.635681 C 346.389954 1010.791626 347.623749 1014.103333 350.091309 1016.570984 C 352.558929 1019.038574 355.870636 1020.272339 360.026611 1020.272339 L 375.806152 1020.272339 C 379.962128 1020.272339 383.273834 1019.038574 385.741394 1016.570984 C 388.209015 1014.103333 389.44281 1010.791626 389.44281 1006.635681 L 389.44281 993.388672 L 404.832764 1001.18103 L 404.832764 1006.440857 C 404.832764 1015.272278 402.170349 1022.350281 396.845551 1027.675049 C 391.520721 1032.999878 384.442719 1035.662231 375.611359 1035.662231 L 360.221405 1035.662231 C 351.389984 1035.662231 344.312012 1032.999878 338.987152 1027.675049 C 333.662354 1022.350281 331 1015.272278 331 1006.440857 Z"/>
        <g id="g2">
            <path id="path3" fill="#9101f9" fill-rule="evenodd" stroke="none" d="M 1050.171021 699.511292 C 1014.16571 700.254517 1001.553955 699.948608 995.313721 698.180481 C 990.857056 696.917725 984.485901 693.806274 981.155701 691.266235 C 977.145691 688.207642 973.777222 683.281921 971.182007 676.681458 C 968.007629 668.608398 967.243103 663.175293 967.157776 648.082336 C 967.059814 630.757202 967.406494 628.772888 972.0979 619.807251 C 975.025208 614.212769 980.768677 607.132507 985.779175 602.941467 C 992.09967 597.654541 995.909729 592.468018 999.98999 583.596436 C 1004.034607 574.802612 1007.884827 569.536804 1014.014954 564.414795 C 1018.662415 560.531738 1026.75061 554.60144 1031.988892 551.236328 C 1037.227173 547.871216 1043.761719 543.000061 1046.510376 540.41156 C 1050.66394 536.499939 1051.102661 535.36145 1049.107788 533.669556 C 1047.787842 532.549866 1042.947876 529.744202 1038.352417 527.434631 C 1033.756836 525.125183 1027.232788 520.06311 1023.85437 516.185791 C 1020.47583 512.308411 1015.831177 504.959839 1013.532837 499.855591 C 1010.643982 493.440369 1008.822083 484.963135 1007.63147 472.396912 C 1006.24884 457.804382 1006.404907 452.291138 1008.423218 444.447083 C 1009.80603 439.072693 1013.248718 428.686768 1016.073608 421.367126 C 1018.898621 414.047607 1025.668457 399.746826 1031.117798 389.587708 C 1036.567017 379.428589 1047.056274 362.040161 1054.427246 350.946838 C 1061.798096 339.853516 1074.485352 322.865234 1082.621094 313.194946 C 1090.756714 303.524658 1106.27478 287.413208 1117.105713 277.391602 C 1127.936523 267.370117 1142.242554 255.149536 1148.896973 250.23468 C 1155.551392 245.319824 1168.009033 237.185669 1176.580688 232.158813 C 1185.152344 227.131958 1201.516357 218.586914 1212.945068 213.169739 C 1224.373901 207.752563 1240.619751 201.379761 1249.046997 199.00769 C 1257.474365 196.635681 1271.500488 193.244812 1280.216553 191.47229 C 1288.932495 189.699768 1303.341064 187.320313 1312.235474 186.184692 C 1324.869873 184.571411 1330.93042 184.582703 1339.94165 186.236267 C 1346.285645 187.40033 1357.320435 191.014832 1364.463379 194.268677 C 1373.309937 198.29834 1380.600098 203.293701 1387.328369 209.935852 C 1393.607422 216.134583 1398.477539 222.889709 1400.695923 228.477905 C 1402.615234 233.312866 1406.184937 242.72345 1408.628418 249.390198 C 1411.071777 256.057007 1413.529541 266.96637 1414.090088 273.633179 C 1414.804443 282.127625 1414.261963 289.058716 1412.277344 296.796753 C 1410.719604 302.869995 1406.867188 313.787842 1403.716553 321.058533 C 1400.565674 328.329285 1394.035034 340.96991 1389.204224 349.148804 C 1384.373413 357.327698 1375.856323 370.600891 1370.277466 378.644775 C 1364.69873 386.688721 1348.488037 408.820251 1334.25354 427.825928 C 1320.019043 446.831665 1300.538086 472.054993 1290.962524 483.877991 C 1281.386963 495.700867 1273.301392 506.82074 1272.994507 508.588623 C 1272.466064 511.633545 1274.155762 511.789429 1305.029785 511.543396 C 1335.264771 511.302429 1338.374756 511.572754 1348.012817 515.279785 C 1354.544312 517.79187 1363.22583 519.493774 1371.390015 519.862549 C 1378.532959 520.185181 1387.690063 521.317078 1391.739258 522.377747 C 1396.605713 523.652588 1401.007935 526.495789 1404.726563 530.765686 C 1407.820313 534.31842 1413.953979 541.814392 1418.356445 547.423523 C 1422.759155 553.032532 1428.495605 561.858887 1431.104492 567.037537 C 1433.893433 572.57373 1436.220337 580.559631 1436.751709 586.419861 C 1437.36853 593.222839 1436.722534 599.303589 1434.716919 605.576233 C 1433.100708 610.630554 1429.371094 618.272461 1426.428711 622.558289 C 1423.48645 626.844116 1418.11377 633.46759 1414.48938 637.277222 C 1410.865356 641.086853 1405.48938 649.03241 1402.543213 654.934021 C 1399.163574 661.704041 1393.544678 668.997986 1387.318604 674.696777 C 1381.891235 679.664612 1371.995972 686.308899 1365.329224 689.461792 C 1358.662476 692.614746 1348.374512 696.419678 1342.467285 697.917236 C 1332.735352 700.384399 1329.924683 700.388794 1312.536987 697.963623 C 1298.754883 696.041382 1279.090454 695.2948 1242.756348 695.314331 C 1214.931274 695.329285 1170.73645 696.062561 1144.54541 696.943848 C 1118.35437 697.825195 1075.885864 698.98053 1050.171021 699.511292 Z M 1356.864014 642.61438 C 1366.34729 642.262329 1371.72229 640.949768 1380.241211 636.905701 C 1386.325562 634.017334 1394.598877 629.225281 1398.625854 626.256592 C 1402.891724 623.111938 1407.770508 617.262573 1410.314453 612.242249 C 1413.840454 605.283875 1414.680908 601.098206 1414.680908 590.494568 C 1414.680908 581.839844 1413.726563 575.474609 1411.880981 571.821838 C 1410.34082 568.773804 1407.418701 564.450928 1405.387329 562.215393 C 1403.355713 559.979675 1398.827271 556.680664 1395.324097 554.884033 C 1391.310425 552.825623 1388.748657 550.165894 1388.397583 547.693054 C 1387.875854 544.017029 1386.834839 543.71283 1371.942749 542.884399 C 1358.05481 542.111816 1355.465088 541.455078 1351.460083 537.689514 C 1346.994019 533.490295 1346.084839 533.362427 1316.27478 532.742737 C 1299.444214 532.392944 1271.647705 533.108948 1254.504395 534.334167 C 1237.361084 535.559204 1220.218018 536.624695 1216.408325 536.701843 C 1210.831665 536.814819 1209.528564 536.252625 1209.721436 533.8172 C 1209.853149 532.153503 1214.138916 527.114075 1219.245361 522.618652 C 1224.351807 518.123047 1236.180298 507.016541 1245.530884 497.937317 C 1254.881592 488.858154 1271.031982 471.68927 1281.420776 459.784302 C 1291.80957 447.879272 1307.69519 428.787903 1316.722168 417.359131 C 1325.749023 405.930359 1342.014526 383.332397 1352.867432 367.141602 C 1363.720459 350.950867 1376.20166 331.46991 1380.603516 323.850647 C 1385.005493 316.231384 1389.889893 304.945313 1391.457886 298.770325 C 1393.322754 291.426331 1394.016113 283.640259 1393.462646 276.259033 C 1392.997192 270.052795 1390.846436 259.130676 1388.682861 251.987671 C 1386.519165 244.844666 1383.347656 236.19928 1381.634766 232.775696 C 1379.921997 229.352112 1375.863403 224.217957 1372.615601 221.366394 C 1369.36792 218.514832 1362.893311 214.303284 1358.227661 212.007263 C 1351.517334 208.705139 1346.306641 207.700562 1333.293945 207.200317 C 1324.246216 206.852539 1309.051025 207.48761 1299.526978 208.611755 C 1290.00293 209.735779 1275.976807 212.186401 1268.357544 214.057556 C 1260.738281 215.928833 1249.828979 219.111816 1244.114624 221.131042 C 1238.400146 223.150269 1228.659668 226.934814 1222.469116 229.54126 C 1216.278442 232.147583 1204.589844 237.940125 1196.494507 242.41333 C 1188.39917 246.886719 1177.100098 253.748169 1171.385742 257.661072 C 1165.671387 261.574036 1155.54126 269.232422 1148.874512 274.679688 C 1142.207642 280.127136 1131.221069 290.302063 1124.459839 297.290771 C 1117.69873 304.27948 1106.740356 316.621094 1100.108032 324.716492 C 1093.475708 332.81189 1083.9646 345.887512 1078.97229 353.773315 C 1073.97998 361.659241 1066.28833 376.464722 1061.879761 386.674438 C 1055.038696 402.517944 1053.869873 406.88678 1053.902466 416.493347 C 1053.923584 422.68396 1054.667847 434.515625 1055.556274 442.785889 C 1056.935791 455.626709 1057.942993 458.788025 1062.452759 464.431396 C 1065.3573 468.066101 1070.405518 472.402405 1073.671265 474.067627 C 1077.219971 475.877197 1083.495483 477.096313 1089.268921 477.098022 C 1097.105713 477.100159 1100.374146 476.131165 1106.585327 471.963745 C 1110.796387 469.138428 1116.831909 463.099365 1119.997559 458.543579 C 1123.16333 453.987793 1131.607544 441.299072 1138.762451 430.346436 C 1145.91748 419.393799 1156.173462 404.588318 1161.553589 397.445313 C 1166.933594 390.302307 1176.662598 378.224182 1183.17334 370.604919 C 1189.684204 362.985657 1200.994385 351.423401 1208.307251 344.91095 C 1215.620117 338.39856 1227.804077 328.722046 1235.382813 323.407715 C 1242.961426 318.093262 1258.641235 309.210815 1270.226807 303.668884 C 1282.460693 297.816711 1296.577148 292.480652 1303.900635 290.940125 C 1310.835815 289.481262 1318.025879 288.768799 1319.87854 289.35675 C 1322.369873 290.147583 1323.070313 291.629761 1322.568481 295.048889 C 1322.19519 297.591492 1318.102905 306.670532 1313.474365 315.224487 C 1308.845703 323.778503 1301.866089 335.283569 1297.963867 340.791199 C 1294.061523 346.29895 1283.019531 359.935608 1273.426147 371.09491 C 1263.832642 382.254272 1248.247925 398.472107 1238.793335 407.134583 C 1229.338745 415.797241 1214.455811 429.044189 1205.720093 436.572449 C 1196.984131 444.10083 1184.516479 454.700867 1178.013794 460.128174 C 1171.51123 465.555603 1159.500244 475.296082 1151.322876 481.773682 C 1143.145508 488.251343 1129.898438 498.676575 1121.88501 504.941101 C 1113.871582 511.205505 1099.814941 522.504395 1090.648193 530.049866 C 1081.481445 537.595215 1065.506958 550.44873 1055.149658 558.613098 C 1044.792236 566.777405 1032.599854 575.738708 1028.055542 578.526978 C 1022.410522 581.99054 1018.63739 585.972229 1016.144409 591.09668 C 1013.081726 597.392151 1012.673767 600.45166 1013.604553 610.144653 C 1014.214539 616.495972 1015.288757 625.507385 1015.991699 630.170044 C 1016.706177 634.908447 1018.492126 639.414978 1020.041077 640.387451 C 1021.840027 641.516968 1042.493286 641.759827 1078.916748 641.079712 C 1109.774292 640.50354 1156.060791 639.119751 1181.775635 638.004578 C 1209.294678 636.811096 1247.408691 636.434387 1274.418213 637.088806 C 1302.42334 637.767334 1325.030518 639.149719 1332.428101 640.636047 C 1339.094849 641.975586 1350.091187 642.865845 1356.864014 642.61438 Z M 1257.460815 359.015503 C 1255.169556 356.757202 1250.997803 357.84137 1246.712036 359.967773 C 1242.42627 362.094177 1233.464966 367.203552 1226.798218 371.321899 C 1220.13147 375.440247 1209.281006 383.197632 1202.686279 388.560486 C 1196.091675 393.92334 1184.093018 405.713928 1176.022949 414.761658 C 1167.952759 423.809448 1158.689087 435.210449 1155.437012 440.097046 C 1152.184814 444.983521 1149.071533 450.71167 1148.518677 452.825989 C 1147.783569 455.63739 1148.195313 456.507141 1150.05127 456.062805 C 1151.447021 455.728577 1158.376831 450.778564 1165.450684 445.062805 C 1172.524536 439.346924 1186.883911 427.389954 1197.360352 418.491638 C 1207.83667 409.593323 1224.97998 393.634216 1235.456421 383.026855 C 1245.932739 372.419495 1255.169556 362.677673 1255.982544 361.378174 L 1257.460815 359.015503 Z"/>
            <path id="path4" fill="#9101f9" fill-rule="evenodd" stroke="none" d="M 860.503906 701.466797 C 857.734863 701.462402 854.728027 701.169128 852.763672 700.65625 C 849.906433 699.910156 840.55603 695.750854 831.984375 691.414063 C 823.412781 687.077271 812.669556 680.524902 808.111328 676.853516 C 802.653564 672.457397 798.08429 666.631409 794.728516 659.789063 C 791.862915 653.946106 788.880554 644.094116 787.914063 637.277344 C 786.968994 630.610535 785.75354 615.414795 785.212891 603.509766 C 784.672424 591.604736 783.115784 572.316284 781.751953 560.646484 C 780.388123 548.976624 778.430054 532.61377 777.402344 524.283203 C 776.374573 515.952637 773.820129 500.953369 771.724609 490.953125 C 768.988892 477.898193 767.199646 472.771484 765.382813 472.771484 C 763.716064 472.771484 761.565674 477.264404 759.082031 485.933594 C 757.008179 493.172424 753.295288 507.977234 750.830078 518.833984 C 748.364929 529.690857 744.337524 547.924744 741.880859 559.353516 C 739.424194 570.782288 736.240967 584.601257 734.806641 590.0625 C 733.372253 595.523682 731.006226 604.485107 729.548828 609.976563 C 728.091614 615.468018 725.535095 623.09668 723.867188 626.929688 C 722.19928 630.762695 716.533081 638.555054 711.275391 644.246094 C 706.0177 649.937073 699.578979 658.878967 696.96875 664.117188 C 694.358398 669.355408 689.7724 676.270508 686.777344 679.482422 C 683.782288 682.694397 677.435852 687.166809 672.673828 689.421875 C 667.467712 691.887329 660.808838 693.52887 655.972656 693.539063 C 651.549072 693.54834 642.775085 691.963562 636.474609 690.017578 C 628.968018 687.699036 623.0849 684.536804 619.408203 680.845703 C 616.322388 677.747742 611.906128 670.963928 609.59375 665.769531 C 607.281433 660.575134 604.353638 654.59021 603.087891 652.470703 C 601.061157 649.077026 600.254089 648.859985 596.320313 650.652344 C 593.533997 651.921875 589.883118 656.631287 586.617188 663.166016 C 583.737427 668.928101 579.456604 676.205078 577.103516 679.337891 C 574.750366 682.470703 569.965149 686.885315 566.470703 689.148438 C 562.976257 691.411621 556.31311 694.524292 551.664063 696.064453 C 544.164246 698.54895 542.211792 698.585449 534.347656 696.396484 C 529.472656 695.039551 522.101868 693.434326 517.966797 692.830078 C 513.831665 692.22583 507.597382 690.259766 504.113281 688.460938 C 500.629059 686.662048 494.896729 682.203003 491.375 678.550781 C 487.853271 674.89856 482.905426 667.382507 480.378906 661.849609 C 477.852448 656.316711 474.315308 644.239075 472.519531 635.009766 C 470.723724 625.780457 467.690582 606.15094 465.779297 591.388672 C 463.867981 576.626404 461.489075 552.469299 460.492188 537.707031 C 459.495331 522.944763 457.849518 466.450623 456.835938 412.164063 C 455.822479 357.877441 455.466339 299.045166 456.042969 281.425781 C 456.619629 263.806396 457.864624 242.158447 458.810547 233.320313 C 459.846008 223.645325 461.922333 214.5224 464.029297 210.392578 C 466.50827 205.533325 469.953186 202.305237 475.839844 199.322266 C 483.591736 195.394043 484.34314 194.410034 487.052734 184.664063 C 488.715363 178.684204 492.182831 171.682007 495.160156 168.291016 C 498.38382 164.619385 503.018799 161.693115 507.349609 160.59375 C 511.416382 159.561523 517.619751 155.794434 522.1875 151.583984 C 526.504456 147.604736 535.69043 141.664795 542.601563 138.382813 C 549.512573 135.100708 559.008423 131.971802 563.703125 131.429688 C 568.928894 130.826294 576.888611 131.531616 584.228516 133.25 C 590.822327 134.793701 600.428833 138.466919 605.576172 141.412109 C 611.103394 144.574463 618.018616 150.697266 622.46875 156.367188 C 626.612976 161.647461 632.505615 171.880859 635.5625 179.107422 C 639.299194 187.941162 642.436157 200.189514 645.134766 216.488281 C 647.342468 229.821899 649.931946 245.797668 650.890625 251.988281 C 651.849243 258.178894 654.678101 275.321716 657.175781 290.083984 C 659.673401 304.846191 662.920837 321.82428 664.392578 327.814453 C 665.948059 334.145203 667.880066 338.437744 669.005859 338.064453 C 670.071106 337.711121 672.172729 332.81073 673.675781 327.173828 C 675.178833 321.536987 678.135315 308.554932 680.246094 298.326172 C 682.356812 288.097534 685.637878 272.159485 687.537109 262.908203 C 689.436401 253.656738 692.202393 238.259583 693.685547 228.691406 C 695.168701 219.123291 698.413818 206.698669 700.896484 201.082031 C 704.271729 193.446167 707.456238 189.40155 713.517578 185.046875 C 720.112366 180.309021 722.000488 177.728271 723.642578 171.207031 C 725.091187 165.454102 728.203735 160.545166 734.667969 153.818359 C 741.590393 146.614868 746.078674 143.636963 754.0625 140.955078 C 760.503174 138.791382 768.234924 137.587524 774.408203 137.785156 C 779.88446 137.960571 787.676819 138.125854 791.724609 138.152344 C 795.772339 138.178711 803.369202 137.621094 808.607422 136.914063 C 816.412415 135.860718 820.003845 136.335083 828.507813 139.542969 C 835.937561 142.345459 841.34845 146.023926 847.556641 152.494141 C 852.325745 157.4646 859.977722 167.028198 864.560547 173.746094 C 869.143494 180.463989 876.755249 195.094666 881.476563 206.259766 C 886.197876 217.424805 891.240417 231.307373 892.681641 237.109375 C 894.122742 242.911316 898.413025 261.51001 902.214844 278.439453 C 906.016663 295.368896 910.698425 319.135071 912.619141 331.253906 C 914.539856 343.372681 918.001526 363.808594 920.3125 376.666016 C 922.623413 389.523376 926.494141 409.782471 928.914063 421.6875 C 931.333862 433.592529 935.711121 455.022583 938.642578 469.308594 C 941.574097 483.594604 945.5177 501.838745 947.404297 509.851563 C 949.290771 517.864441 951.593201 530.333069 952.521484 537.558594 C 953.449768 544.78418 954.664612 558.15918 955.220703 567.28125 C 955.955994 579.343201 955.4375 587.845093 953.322266 598.451172 C 951.722534 606.472229 948.195984 617.827087 945.484375 623.685547 C 942.772888 629.544067 936.224243 639.047668 930.931641 644.804688 C 925.639099 650.561707 918.991028 659.862915 916.158203 665.474609 C 913.144531 671.444641 907.14447 679.206787 901.697266 684.183594 C 895.352722 689.980286 888.83313 693.942566 881.226563 696.625 C 875.087952 698.789795 867.343018 700.888306 864.013672 701.287109 C 862.973206 701.411743 861.762573 701.46875 860.503906 701.466797 Z M 887.544922 644.519531 C 888.423035 644.514709 889.283386 644.485535 890.097656 644.431641 C 894.440613 644.144287 901.731018 642.043945 906.296875 639.763672 C 910.86261 637.483398 916.587585 633.263733 919.019531 630.386719 C 921.451599 627.509644 925.275818 621.018555 927.519531 615.962891 C 929.763123 610.907166 932.483765 601.556763 933.564453 595.183594 C 934.704346 588.461121 935.139648 575.234741 934.601563 563.681641 C 933.901428 548.648071 930.647949 528.702637 921.324219 482.294922 C 914.531372 448.484863 907.775574 414.978943 906.3125 407.835938 C 904.849487 400.692932 901.274719 381.600952 898.367188 365.410156 C 895.459534 349.219421 892.37207 331.305847 891.505859 325.603516 C 890.639587 319.901184 887.637451 303.927368 884.833984 290.105469 C 882.030579 276.283508 876.968506 254.844116 873.585938 242.462891 C 869.658081 228.085632 864.030823 213.06958 858.013672 200.904297 C 852.221802 189.194397 845.118286 177.958008 839.572266 171.736328 C 834.610535 166.169922 828.086304 160.440186 825.074219 159.003906 C 821.109314 157.113159 816.765808 156.689941 809.339844 157.472656 C 803.698486 158.067383 790.810242 158.468384 780.699219 158.363281 C 765.201477 158.202393 761.197632 158.74353 755.193359 161.806641 C 751.276062 163.805176 746.914124 167.677368 745.5 170.412109 C 744.085754 173.146851 741.421448 183.853638 739.578125 194.205078 C 737.734863 204.55658 734.482056 222.375916 732.349609 233.804688 C 730.217285 245.233459 725.395813 268.22168 721.636719 284.888672 C 717.877502 301.555725 712.610291 325.321838 709.931641 337.703125 C 707.25293 350.084351 701.902344 373.852539 698.041016 390.519531 C 694.179688 407.186584 688.907715 430.563721 686.326172 442.46875 C 683.744812 454.373779 680.57074 466.790894 679.271484 470.064453 C 677.156372 475.393677 676.633728 475.741272 674.273438 473.380859 C 672.663574 471.771057 667.960815 452.60083 662.193359 424.138672 C 656.999084 398.505066 650.373596 364.284485 647.470703 348.09375 C 644.567871 331.902954 639.492371 303.849548 636.191406 285.753906 C 632.890381 267.658264 629.054443 245.061096 627.667969 235.537109 C 626.281555 226.013123 624.4422 212.338379 623.580078 205.148438 C 622.420837 195.480103 620.499756 189.392395 616.203125 181.771484 C 613.007874 176.104004 607.786865 168.577637 604.601563 165.046875 C 601.070435 161.132935 595.119751 157.24646 589.355469 155.089844 C 583.486755 152.894043 575.820435 151.566162 569.142578 151.589844 C 562.242371 151.614258 555.714417 152.839844 550.9375 155.007813 C 546.841492 156.866821 541.318054 160.560913 538.662109 163.216797 C 535.961731 165.917236 532.122253 173.188721 529.951172 179.712891 C 529.175354 182.04425 528.327759 184.217224 527.507813 186.044922 L 528.033203 186.480469 L 527.220703 219.820313 L 527.25 240.449219 L 528.080078 285.902344 L 524.486328 281.966797 L 524.869141 278.609375 L 523.767578 239.068359 L 523.767578 239.048828 L 523.767578 239.015625 L 523.767578 238.978516 L 523.767578 238.921875 L 523.767578 238.855469 L 523.746094 238.789063 L 523.722656 238.683594 L 523.722656 238.570313 L 523.722656 238.449219 L 523.722656 238.291016 L 523.722656 238.123047 L 523.75 237.919922 L 523.777344 237.634766 L 523.777344 237.287109 L 523.808594 236.931641 L 523.841797 236.648438 L 523.841797 236.470703 L 523.865234 236.318359 L 523.888672 236.123047 L 523.888672 235.896484 L 523.888672 235.695313 L 523.888672 235.529297 L 523.861328 235.34375 L 523.826172 235.123047 L 523.800781 234.880859 L 523.753906 234.611328 L 523.708984 234.335938 L 523.650391 234.050781 L 523.583984 233.767578 L 523.525391 233.486328 L 523.494141 233.222656 L 523.466797 232.994141 L 523.439453 232.728516 L 523.439453 232.398438 L 523.439453 231.992188 L 523.439453 231.523438 L 523.431641 231.087891 L 523.400391 230.695313 L 523.365234 230.302734 L 523.333984 229.908203 L 523.298828 229.560547 L 523.267578 229.232422 L 523.222656 228.878906 L 523.193359 228.496094 L 523.193359 227.966797 L 523.193359 227.410156 L 523.193359 226.886719 L 523.193359 226.318359 L 523.193359 225.658203 L 523.193359 224.916016 L 523.193359 224.179688 L 523.193359 223.449219 L 523.193359 222.722656 L 523.193359 221.960938 L 523.193359 221.148438 L 523.152344 220.308594 L 523.113281 219.378906 L 523.113281 218.511719 L 523.113281 217.802734 L 523.113281 217.128906 L 523.113281 216.513672 L 523.113281 215.960938 L 523.113281 215.396484 L 523.113281 214.802734 L 523.142578 214.242188 L 523.173828 213.730469 L 523.173828 213.228516 L 523.173828 212.71875 L 523.173828 212.083984 L 523.173828 211.404297 L 523.173828 210.802734 L 523.167969 210.228516 L 523.132813 209.75 L 523.105469 209.228516 L 523.105469 208.65625 L 523.105469 208.134766 L 523.105469 207.679688 L 523.105469 207.289063 L 523.105469 206.894531 L 523.105469 206.5 L 523.105469 206.125 L 523.140625 205.722656 L 523.199219 205.298828 L 523.230469 204.869141 L 523.242188 204.427734 L 523.273438 204.021484 L 523.304688 203.652344 L 523.304688 203.296875 L 523.304688 202.996094 L 523.304688 202.693359 L 523.304688 202.34375 L 523.304688 202.021484 L 523.304688 201.6875 L 523.304688 201.392578 L 523.304688 201.130859 L 523.273438 200.806641 L 523.242188 200.429688 L 523.210938 200.066406 L 523.152344 199.728516 L 523.126953 199.390625 L 523.119141 199.083984 L 523.078125 198.757813 L 522.990234 198.427734 L 522.910156 198.15625 L 522.851563 197.853516 L 522.789063 197.482422 L 522.708984 197.041016 L 522.609375 196.542969 L 522.527344 196.070313 L 522.455078 195.511719 L 522.351563 194.880859 L 522.169922 194.164063 L 521.957031 193.244141 L 521.654297 192.3125 L 521.310547 191.392578 L 521.048828 190.486328 L 520.8125 189.683594 L 520.701172 189.087891 L 521.048828 188.498047 C 520.64563 187.800781 520.268127 187.018799 519.955078 186.189453 C 518.877441 183.334412 516.69928 180.50116 515.113281 179.892578 C 513.527344 179.283997 511.18811 179.866699 509.916016 181.1875 C 508.643921 182.50824 506.779236 189.433167 505.771484 196.576172 C 504.763611 203.719177 503.535767 218.523926 503.044922 229.476563 C 502.553986 240.429199 502.911987 293.807129 503.839844 348.09375 C 504.767792 402.38031 506.285645 464.33075 507.212891 485.759766 C 508.140106 507.188782 510.865479 540.305481 513.269531 559.353516 C 515.673462 578.401489 518.909241 599.260437 520.458984 605.707031 C 522.008728 612.153687 524.942566 619.875427 526.978516 622.865234 C 529.014404 625.855103 532.694763 629.793152 535.158203 631.617188 C 537.621765 633.441162 543.075989 635.330017 547.279297 635.814453 C 551.482727 636.298889 558.54657 637.926636 562.976563 639.431641 C 569.744263 641.730774 571.891418 641.811462 576.40625 639.941406 C 579.361633 638.717163 584.092529 635.081604 586.919922 631.861328 C 589.747375 628.641052 593.34259 621.593506 594.910156 616.201172 C 597.502686 607.283142 597.571106 600.514526 595.662109 541.316406 C 594.507751 505.52179 593.351379 464.156799 593.091797 449.394531 C 592.832214 434.632263 593.1521 421.955994 593.802734 421.224609 C 594.453369 420.493347 597.036743 426.33667 599.542969 434.210938 C 602.049316 442.085327 607.274475 460.217834 611.154297 474.503906 C 615.034241 488.789917 621.014282 510.218018 624.445313 522.123047 C 627.876465 534.028015 632.940247 552.340027 635.697266 562.816406 C 638.454407 573.292786 643.819519 591.750549 647.619141 603.832031 C 652.815002 620.35376 655.620972 626.658081 658.943359 629.271484 C 661.372864 631.182556 667.598816 633.694641 672.777344 634.853516 C 680.204956 636.515808 683.699219 636.510132 689.326172 634.824219 C 693.249451 633.648804 698.175903 630.833618 700.275391 628.568359 C 702.374695 626.303101 705.541016 619.932373 707.3125 614.412109 C 709.083984 608.891846 711.950989 600.963928 713.683594 596.792969 C 715.416199 592.621948 718.806213 579.375244 721.216797 567.355469 C 723.627319 555.335632 728.034851 535.369568 731.011719 522.988281 C 733.988586 510.607056 738.102844 492.686157 740.154297 483.162109 C 742.205688 473.638123 747.230591 453.766174 751.320313 439.003906 C 755.410156 424.241638 762.084717 401.255554 766.152344 387.921875 C 770.220032 374.588257 775.629944 356.820313 778.173828 348.439453 C 778.551392 347.195679 778.935242 345.997192 779.322266 344.845703 L 778.826172 344.501953 L 786.765625 317.775391 L 789.322266 316.640625 L 793.525391 343.046875 L 792.505859 343.84375 C 793.654968 348.382874 794.999146 353.978943 796.341797 359.867188 C 799.425659 373.391724 804.664185 395.756653 807.982422 409.566406 C 811.30072 423.37616 815.509888 442.079163 817.335938 451.126953 C 819.162048 460.174683 822.262146 478.486694 824.224609 491.820313 C 826.187195 505.153931 828.885681 526.582092 830.222656 539.439453 C 831.559509 552.296875 833.191833 572.946838 833.847656 585.328125 C 834.843689 604.13092 835.725342 609.204529 839.201172 616.126953 C 841.489929 620.685242 845.867798 625.993042 848.929688 627.921875 C 851.991516 629.850647 856.351868 632.179871 858.619141 633.097656 C 860.886414 634.015442 865.009094 636.381531 867.78125 638.355469 C 870.553528 640.329468 874.932007 642.621338 877.511719 643.449219 C 879.607727 644.121887 883.739624 644.540527 887.544922 644.519531 Z M 736.277344 470.958984 L 734.300781 468.53125 L 741.347656 434.898438 L 751.398438 394.388672 L 762.742188 350.876953 L 777.423828 302.138672 L 781.851563 289.541016 L 784.3125 301.695313 L 780.988281 313.681641 L 768.666016 352.191406 L 756.589844 392.871094 L 742.207031 447.072266 L 736.277344 470.958984 Z M 624.011719 351.072266 C 623.553833 351.068604 622.886292 349.527161 621.943359 346.361328 C 620.808533 342.551758 616.805115 326.577881 613.046875 310.863281 C 609.288635 295.148621 603.02063 269.04425 599.117188 252.853516 C 595.213684 236.66272 592.244873 221.077942 592.519531 218.220703 C 592.923523 214.020813 593.912598 212.921875 597.685547 212.486328 C 601.793457 212.012085 602.558228 212.737549 604.076172 218.546875 C 605.024658 222.176514 606.605591 230.99176 607.587891 238.134766 C 608.57019 245.277771 610.88385 259.304443 612.730469 269.304688 C 614.576965 279.304932 617.365173 294.889709 618.925781 303.9375 C 620.48645 312.985291 622.519348 326.231995 623.445313 333.375 C 624.371277 340.518005 624.877197 347.921387 624.568359 349.826172 C 624.433899 350.655334 624.251587 351.074158 624.011719 351.072266 Z"/>
        </g>
    </g>
</svg>
