<?xml version="1.0" encoding="UTF-8"?>
<!-- Generated by Pixelmator Pro 3.4.3 -->
<svg width="1269" height="1269" viewBox="0 0 1269 1269" xmlns="http://www.w3.org/2000/svg">
    <path id="path1" fill="#ffffff" fill-rule="evenodd" stroke="none" d="M -325 1269 L 1595 1269 L 1595 0 L -325 0 Z"/>
    <g id="g1">
        <path id="path2" fill="#9101f9" fill-rule="evenodd" stroke="none" d="M 321.587036 801.120117 L 946.763428 801.120117 L 946.763428 794.095703 L 321.587036 794.095703 Z"/>
        <path id="-" fill="#9101f9" fill-rule="evenodd" stroke="none" d="M 1051.691162 999.209717 L 1051.691162 862.654419 L 1064.177124 862.654419 L 1064.177124 924.768066 L 1087.726685 924.768066 C 1094.891602 924.768066 1100.634155 926.928101 1104.954102 931.248169 C 1109.27417 935.568237 1111.434204 941.310669 1111.434204 948.475586 L 1111.434204 975.502197 C 1111.434204 982.667236 1109.27417 988.409668 1104.954102 992.729675 C 1100.634155 997.049744 1094.891602 999.209717 1087.726685 999.209717 Z M 1121.233276 862.654419 L 1133.719238 862.654419 L 1133.719238 999.209717 L 1121.233276 999.209717 Z M 1087.884644 986.723755 C 1091.256348 986.723755 1093.943237 985.722778 1095.94519 983.720825 C 1097.947266 981.718872 1098.94812 979.031982 1098.94812 975.660278 L 1098.94812 948.317566 C 1098.94812 944.945801 1097.947266 942.259033 1095.94519 940.257019 C 1093.943237 938.255005 1091.256348 937.254028 1087.884644 937.254028 L 1064.177124 937.254028 L 1064.177124 986.723755 Z M 974.720764 874.9823 L 974.720764 862.654419 L 1037.150635 862.654419 L 1037.150635 874.9823 L 1012.17865 874.9823 L 1012.17865 999.209717 L 999.692749 999.209717 L 999.692749 874.9823 Z M 899.488831 885.571655 C 899.488831 878.406677 901.648865 872.664246 905.968933 868.344177 C 910.289001 864.024109 916.031433 861.864136 923.19635 861.864136 L 937.262817 861.864136 C 944.427795 861.864136 950.170166 864.024109 954.490295 868.344177 C 958.810486 872.664246 960.970459 878.406677 960.970459 885.571655 L 960.970459 976.29248 C 960.970459 983.457397 958.810486 989.19989 954.490295 993.519897 C 950.170166 997.839966 944.427795 1000 937.262817 1000 L 923.19635 1000 C 916.031433 1000 910.289001 997.839966 905.968933 993.519897 C 901.648865 989.19989 899.488831 983.457397 899.488831 976.29248 Z M 923.03833 987.514038 L 937.420837 987.514038 C 940.792603 987.514038 943.479431 986.513062 945.481506 984.511108 C 947.483459 982.509094 948.484375 979.822266 948.484375 976.450562 L 948.484375 885.413574 C 948.484375 882.04187 947.483459 879.35498 945.481506 877.353027 C 943.479431 875.351074 940.792603 874.350098 937.420837 874.350098 L 923.03833 874.350098 C 919.666565 874.350098 916.979736 875.351074 914.977783 877.353027 C 912.97583 879.35498 911.974792 882.04187 911.974792 885.413574 L 911.974792 976.450562 C 911.974792 979.822266 912.97583 982.509094 914.977783 984.511108 C 916.979736 986.513062 919.666565 987.514038 923.03833 987.514038 Z M 821.095947 976.29248 L 821.095947 885.571655 C 821.095947 878.406677 823.25592 872.664246 827.575989 868.344177 C 831.895996 864.024109 837.638489 861.864136 844.803467 861.864136 L 857.289429 861.864136 C 864.454407 861.864136 870.196899 864.024109 874.516907 868.344177 C 878.836975 872.664246 880.996948 878.406677 880.996948 885.571655 L 880.996948 904.85376 L 868.510986 898.531738 L 868.510986 885.413574 C 868.510986 882.04187 867.510071 879.35498 865.507996 877.353027 C 863.506042 875.351074 860.819275 874.350098 857.447449 874.350098 L 844.645447 874.350098 C 841.273682 874.350098 838.586853 875.351074 836.5849 877.353027 C 834.582825 879.35498 833.581909 882.04187 833.581909 885.413574 L 833.581909 976.450562 C 833.581909 979.822266 834.582825 982.509094 836.5849 984.511108 C 838.586853 986.513062 841.273682 987.514038 844.645447 987.514038 L 857.447449 987.514038 C 860.819275 987.514038 863.506042 986.513062 865.507996 984.511108 C 867.510071 982.509094 868.510986 979.822266 868.510986 976.450562 L 868.510986 965.703125 L 880.996948 972.025146 L 880.996948 976.29248 C 880.996948 983.457397 878.836975 989.19989 874.516907 993.519897 C 870.196899 997.839966 864.454407 1000 857.289429 1000 L 844.803467 1000 C 837.638489 1000 831.895996 997.839966 827.575989 993.519897 C 823.25592 989.19989 821.095947 983.457397 821.095947 976.29248 Z M 760.088562 873.559814 C 760.720764 870.293457 762.248535 867.659302 764.672058 865.657349 C 767.095459 863.655396 769.993042 862.654419 773.364807 862.654419 L 777.790161 862.654419 L 804.974854 999.209717 L 791.698608 999.209717 L 785.534607 967.757751 L 754.398804 967.757751 L 748.234802 999.209717 L 735.116577 999.209717 Z M 783.638062 955.27179 L 770.045776 884.781372 L 756.295349 955.27179 Z M 704.454895 862.654419 C 711.619812 862.654419 717.362244 864.814331 721.682312 869.134399 C 726.00238 873.454468 728.162476 879.196899 728.162476 886.361938 L 728.162476 913.388489 C 728.162476 920.553467 726.00238 926.295898 721.682312 930.615967 C 717.362244 934.936035 711.619812 937.096069 704.454895 937.096069 L 680.747375 937.096069 L 680.747375 999.209717 L 668.261414 999.209717 L 668.261414 862.654419 Z M 680.747375 924.768066 L 704.612976 924.768066 C 707.984741 924.768066 710.67157 923.76709 712.673523 921.765137 C 714.675476 919.763184 715.676453 917.076294 715.676453 913.70459 L 715.676453 886.045776 C 715.676453 882.674072 714.675476 879.987183 712.673523 877.985229 C 710.67157 875.983276 707.984741 874.9823 704.612976 874.9823 L 680.747375 874.9823 Z M 597.612915 862.654419 L 597.612915 935.989624 L 627.642456 871.821289 C 629.117676 868.765625 631.277649 866.342224 634.122559 864.550964 C 636.967407 862.759766 640.075806 861.864136 643.447449 861.864136 L 647.398743 861.864136 L 618.159424 919.71051 L 648.188965 999.209717 L 634.7547 999.209717 L 610.73114 934.40918 L 597.612915 960.329407 L 597.612915 999.209717 L 585.127014 999.209717 L 585.127014 862.654419 Z M 480.497742 862.654419 L 480.497742 924.768066 L 515.426819 924.768066 L 515.426819 862.654419 L 527.912781 862.654419 L 527.912781 999.209717 L 515.426819 999.209717 L 515.426819 937.096069 L 480.497742 937.096069 L 480.497742 999.209717 L 468.011749 999.209717 L 468.011749 862.654419 Z M 387.248108 885.571655 C 387.248108 878.406677 389.408112 872.664246 393.728149 868.344177 C 398.048218 864.024109 403.790649 861.864136 410.955627 861.864136 L 425.022125 861.864136 C 432.187134 861.864136 437.929565 864.024109 442.249603 868.344177 C 446.569672 872.664246 448.729645 878.406677 448.729645 885.571655 L 448.729645 976.29248 C 448.729645 983.457397 446.569672 989.19989 442.249603 993.519897 C 437.929565 997.839966 432.187134 1000 425.022125 1000 L 410.955627 1000 C 403.790649 1000 398.048218 997.839966 393.728149 993.519897 C 389.408112 989.19989 387.248108 983.457397 387.248108 976.29248 Z M 410.797607 987.514038 L 425.180176 987.514038 C 428.551941 987.514038 431.238739 986.513062 433.240692 984.511108 C 435.242737 982.509094 436.243683 979.822266 436.243683 976.450562 L 436.243683 885.413574 C 436.243683 882.04187 435.242737 879.35498 433.240692 877.353027 C 431.238739 875.351074 428.551941 874.350098 425.180176 874.350098 L 410.797607 874.350098 C 407.425842 874.350098 404.739014 875.351074 402.737061 877.353027 C 400.735016 879.35498 399.7341 882.04187 399.7341 885.413574 L 399.7341 976.450562 C 399.7341 979.822266 400.735016 982.509094 402.737061 984.511108 C 404.739014 986.513062 407.425842 987.514038 410.797607 987.514038 Z M 294.788727 999.209717 L 300.952728 986.723755 L 305.694214 986.723755 C 307.801544 986.723755 308.855225 985.670105 308.855225 983.562744 L 308.855225 886.361938 C 308.855225 879.196899 311.015198 873.454468 315.335266 869.134399 C 319.655334 864.814331 325.397766 862.654419 332.562744 862.654419 L 366.385529 862.654419 L 366.385529 999.209717 L 354.057556 999.209717 L 354.057556 874.9823 L 332.246704 874.9823 C 328.874908 874.9823 326.18811 875.983276 324.186066 877.985229 C 322.184113 879.987183 321.183167 882.674072 321.183167 886.045776 L 321.183167 984.985229 C 321.183167 989.305298 319.892426 992.755981 317.310883 995.337524 C 314.72937 997.919006 311.278717 999.209717 306.958649 999.209717 Z M 236.310165 873.559814 C 236.942383 870.293457 238.470154 867.659302 240.893631 865.657349 C 243.317123 863.655396 246.21463 862.654419 249.586395 862.654419 L 254.011841 862.654419 L 281.196442 999.209717 L 267.920197 999.209717 L 261.756226 967.757751 L 230.620377 967.757751 L 224.456406 999.209717 L 211.338242 999.209717 Z M 259.85965 955.27179 L 246.267365 884.781372 L 232.516937 955.27179 Z M 135 976.29248 L 135 885.571655 C 135 878.406677 137.159988 872.664246 141.480042 868.344177 C 145.80014 864.024109 151.542542 861.864136 158.707535 861.864136 L 171.193512 861.864136 C 178.358459 861.864136 184.100906 864.024109 188.420959 868.344177 C 192.741013 872.664246 194.901047 878.406677 194.901047 885.571655 L 194.901047 904.85376 L 182.415054 898.531738 L 182.415054 885.413574 C 182.415054 882.04187 181.414093 879.35498 179.412094 877.353027 C 177.410141 875.351074 174.723312 874.350098 171.351547 874.350098 L 158.5495 874.350098 C 155.177719 874.350098 152.490906 875.351074 150.488907 877.353027 C 148.486954 879.35498 147.485977 882.04187 147.485977 885.413574 L 147.485977 976.450562 C 147.485977 979.822266 148.486954 982.509094 150.488907 984.511108 C 152.490906 986.513062 155.177719 987.514038 158.5495 987.514038 L 171.351547 987.514038 C 174.723312 987.514038 177.410141 986.513062 179.412094 984.511108 C 181.414093 982.509094 182.415054 979.822266 182.415054 976.450562 L 182.415054 965.703125 L 194.901047 972.025146 L 194.901047 976.29248 C 194.901047 983.457397 192.741013 989.19989 188.420959 993.519897 C 184.100906 997.839966 178.358459 1000 171.193512 1000 L 158.707535 1000 C 151.542542 1000 145.80014 997.839966 141.480042 993.519897 C 137.159988 989.19989 135 983.457397 135 976.29248 Z"/>
        <g id="g2">
            <path id="path3" fill="#9101f9" fill-rule="evenodd" stroke="none" d="M 718.468689 727.27832 C 689.257263 727.881287 679.025208 727.633057 673.962524 726.198608 C 670.346802 725.174072 665.177856 722.64978 662.476013 720.588989 C 659.222656 718.107544 656.489807 714.111267 654.384277 708.756287 C 651.808899 702.206543 651.188599 697.798645 651.119385 685.553589 C 651.039917 671.49762 651.321167 669.887695 655.127319 662.613831 C 657.502319 658.075012 662.161987 652.330688 666.227051 648.930481 C 671.354919 644.641174 674.446045 640.433289 677.756409 633.235718 C 681.037842 626.101257 684.161499 621.829041 689.13501 617.673523 C 692.905457 614.523132 699.467468 609.711853 703.717346 606.98175 C 707.967163 604.251587 713.268738 600.299561 715.498718 598.199524 C 718.86853 595.026001 719.224426 594.102356 717.606079 592.729675 C 716.535156 591.821289 712.608398 589.545044 708.880127 587.671265 C 705.151733 585.797607 699.858704 581.690674 697.117737 578.544983 C 694.376709 575.399231 690.608459 569.437256 688.743774 565.296143 C 686.400085 560.091431 684.921936 553.213806 683.955994 543.018738 C 682.834229 531.179749 682.960876 526.706787 684.598328 520.342834 C 685.720276 515.982544 688.513306 507.556396 690.805176 501.61792 C 693.097107 495.679565 698.589539 484.077209 703.01062 475.835022 C 707.43158 467.592896 715.941589 453.485535 721.921753 444.485413 C 727.901794 435.485352 738.195007 421.702576 744.795654 413.856995 C 751.396118 406.011475 763.986084 392.940125 772.773254 384.80957 C 781.560303 376.679016 793.166931 366.764343 798.565735 362.776917 C 803.964478 358.78949 814.071472 352.190186 821.025696 348.111816 C 827.979919 344.033508 841.256165 337.100891 850.528381 332.705872 C 859.800659 328.310913 872.981079 323.140564 879.818176 321.216125 C 886.655273 319.291687 898.034851 316.540649 905.106201 315.1026 C 912.17749 313.66449 923.86731 311.73407 931.083435 310.812683 C 941.333801 309.503845 946.250732 309.513 953.561646 310.854553 C 958.708618 311.79895 967.661194 314.731445 973.45636 317.371277 C 980.633606 320.640564 986.548157 324.693359 992.006836 330.082153 C 997.101135 335.111267 1001.052185 340.591797 1002.852051 345.125488 C 1004.409241 349.048096 1007.305237 356.682983 1009.28772 362.091797 C 1011.270081 367.50061 1013.264038 376.351501 1013.718872 381.760254 C 1014.29834 388.651917 1013.858276 394.275146 1012.248108 400.553101 C 1010.984375 405.480347 1007.858826 414.338074 1005.302673 420.236816 C 1002.746399 426.135681 997.448059 436.391113 993.528687 443.026672 C 989.609497 449.662292 982.699402 460.430908 978.17334 466.95697 C 973.647217 473.483093 960.495422 491.438538 948.946838 506.857971 C 937.398315 522.277466 921.593262 542.741333 913.824524 552.333435 C 906.055786 561.925415 899.495911 570.947021 899.246887 572.381348 C 898.818176 574.851746 900.189026 574.97821 925.237366 574.778564 C 949.767273 574.583069 952.290344 574.802429 960.109863 577.809937 C 965.408936 579.847961 972.452209 581.22876 979.075928 581.527954 C 984.871094 581.789734 992.300232 582.708008 995.585449 583.568604 C 999.533569 584.602844 1003.105164 586.909546 1006.122131 590.373779 C 1008.632141 593.256104 1013.608398 599.337646 1017.180115 603.888367 C 1020.752014 608.439026 1025.406128 615.599915 1027.522705 619.801392 C 1029.7854 624.292908 1031.673218 630.771912 1032.10437 635.526367 C 1032.604736 641.045715 1032.080688 645.979004 1030.453491 651.068054 C 1029.142334 655.168701 1026.116455 661.368652 1023.729187 664.845764 C 1021.342163 668.322876 1016.983276 673.696533 1014.042786 676.787354 C 1011.102478 679.878113 1006.741028 686.324402 1004.350708 691.112427 C 1001.608887 696.60498 997.050171 702.522644 991.998962 707.146118 C 987.595642 711.176514 979.567566 716.567078 974.158813 719.125061 C 968.75 721.683044 960.40332 724.77002 955.610718 725.985046 C 947.715149 727.986633 945.434814 727.990234 931.328064 726.022644 C 920.146545 724.463135 904.192688 723.857361 874.714478 723.87323 C 852.139832 723.885376 816.28418 724.480286 795.035217 725.195313 C 773.786255 725.910339 739.331299 726.847656 718.468689 727.27832 Z M 967.290894 681.117432 C 974.98468 680.831787 979.34552 679.766907 986.256958 676.485901 C 991.193237 674.142578 997.905396 670.2547 1001.172607 667.846252 C 1004.633545 665.294922 1008.591614 660.549255 1010.655579 656.476257 C 1013.516296 650.830872 1014.198181 647.434998 1014.198181 638.832214 C 1014.198181 631.810608 1013.423889 626.646423 1011.926514 623.682922 C 1010.677002 621.210022 1008.306274 617.702881 1006.658203 615.889099 C 1005.009949 614.075317 1001.335999 611.398743 998.493835 609.941162 C 995.237488 608.271118 993.159119 606.113281 992.874268 604.107056 C 992.450989 601.124634 991.606384 600.877869 979.524353 600.20575 C 968.256958 599.578979 966.155945 599.046143 962.906616 595.991089 C 959.283264 592.58429 958.545654 592.48053 934.360535 591.977783 C 920.705811 591.69397 898.154236 592.274902 884.245789 593.26886 C 870.337341 594.262756 856.428955 595.127197 853.338196 595.189819 C 848.813782 595.281433 847.756531 594.825378 847.913025 592.849487 C 848.019958 591.499756 851.497009 587.411194 855.639893 583.763977 C 859.782837 580.116699 869.379333 571.105896 876.965515 563.739868 C 884.551819 556.37384 897.654724 542.444641 906.083252 532.786011 C 914.511719 523.12738 927.399841 507.638428 934.723511 498.366211 C 942.047058 489.093994 955.243347 470.760071 964.048462 457.62439 C 972.853516 444.488708 982.979675 428.683655 986.550903 422.502136 C 990.122253 416.320557 994.085022 407.164063 995.357178 402.154236 C 996.870117 396.195984 997.432617 389.87915 996.983643 383.890686 C 996.606018 378.855469 994.861023 369.994324 993.105774 364.199158 C 991.350342 358.403992 988.777222 351.389893 987.387573 348.612366 C 985.997986 345.834717 982.705261 341.669373 980.070251 339.355896 C 977.435364 337.042419 972.182495 333.625549 968.397217 331.762756 C 962.953125 329.08374 958.725586 328.268677 948.168335 327.862854 C 940.827759 327.580688 928.499817 328.095947 920.772949 329.007935 C 913.046021 329.919861 901.666443 331.908081 895.484924 333.426147 C 889.303345 334.944336 880.452576 337.526733 875.816406 339.164917 C 871.180298 340.803162 863.277832 343.873596 858.25531 345.98822 C 853.232788 348.102783 843.749817 352.802246 837.181946 356.431458 C 830.614075 360.06073 821.447144 365.627441 816.811035 368.802002 C 812.174927 371.976624 803.956238 378.189941 798.547424 382.609375 C 793.138672 387.02887 784.225159 395.283875 778.739746 400.953857 C 773.254333 406.62384 764.36377 416.636719 758.98291 423.204529 C 753.60199 429.7724 745.885681 440.380737 741.835266 446.778564 C 737.784973 453.176453 731.5448 465.188293 727.968079 473.471497 C 722.417786 486.325439 721.469482 489.869873 721.495972 497.663757 C 721.513123 502.686279 722.116882 512.2854 722.837769 518.995117 C 723.95697 529.412964 724.774109 531.977783 728.432922 536.556274 C 730.789368 539.505127 734.885071 543.023193 737.534607 544.374207 C 740.413635 545.842346 745.505005 546.831421 750.189087 546.832825 C 756.547119 546.834534 759.19873 546.048401 764.237976 542.667358 C 767.654419 540.375122 772.551025 535.475586 775.119446 531.779419 C 777.687866 528.083313 784.538696 517.788818 790.343506 508.902893 C 796.148376 500.016968 804.469177 488.005127 808.834106 482.209961 C 813.198975 476.414795 821.092163 466.615723 826.37439 460.434143 C 831.656677 454.252625 840.832764 444.87207 846.765686 439.58844 C 852.698669 434.304932 862.583618 426.454285 868.7323 422.142761 C 874.88092 417.831116 887.602051 410.624695 897.001465 406.128479 C 906.926941 401.380554 918.3797 397.051392 924.321289 395.801575 C 929.947876 394.617981 935.781189 394.039978 937.284241 394.516968 C 939.305481 395.158508 939.873779 396.361084 939.466614 399.13501 C 939.163879 401.197815 935.843689 408.563721 932.088562 415.503662 C 928.333313 422.443542 922.670593 431.77771 919.504761 436.246094 C 916.338745 440.7146 907.380371 451.778076 899.597107 460.831665 C 891.813904 469.885376 879.169861 483.04303 871.499268 490.070984 C 863.828735 497.098999 851.754089 507.846375 844.666687 513.954102 C 837.579224 520.061951 827.46405 528.661804 822.188416 533.065063 C 816.912781 537.468384 807.168152 545.370911 800.533875 550.62616 C 793.899475 555.881592 783.152039 564.339661 776.650757 569.422119 C 770.149353 574.504456 758.745178 583.671326 751.308105 589.79303 C 743.871033 595.914612 730.910828 606.342773 722.507813 612.966614 C 714.104797 619.590332 704.213013 626.860718 700.526245 629.122803 C 695.94635 631.932861 692.885132 635.163269 690.86261 639.32074 C 688.377808 644.428284 688.046814 646.910522 688.802002 654.774475 C 689.296875 659.927368 690.168396 667.238403 690.738708 671.02124 C 691.318359 674.865479 692.767334 678.521729 694.023987 679.310669 C 695.483459 680.227051 712.239624 680.424133 741.790283 679.872314 C 766.825134 679.404846 804.377808 678.282166 825.240356 677.377441 C 847.566833 676.40918 878.488953 676.103516 900.402039 676.63446 C 923.122742 677.184998 941.464111 678.306519 947.465881 679.51239 C 952.874634 680.599182 961.796021 681.321411 967.290894 681.117432 Z M 886.644287 451.031555 C 884.785461 449.199402 881.400818 450.078979 877.923767 451.804138 C 874.446716 453.529297 867.176331 457.674622 861.767517 461.015869 C 856.358765 464.357117 847.555725 470.650757 842.205383 475.001648 C 836.855042 479.3526 827.120544 488.918335 820.573181 496.25885 C 814.025879 503.599365 806.510132 512.84906 803.871704 516.81366 C 801.233154 520.778076 798.707336 525.425354 798.25885 527.140747 C 797.662354 529.421631 797.99646 530.127258 799.502136 529.766785 C 800.634521 529.495605 806.256775 525.479614 811.99585 520.842407 C 817.734985 516.205078 829.384827 506.504272 837.884399 499.284973 C 846.383972 492.065735 860.292419 479.117981 868.791992 470.512146 C 877.291565 461.906372 884.785461 454.002747 885.445068 452.948486 L 886.644287 451.031555 Z"/>
            <path id="path4" fill="#9101f9" fill-rule="evenodd" stroke="none" d="M 564.589844 728.865234 C 562.343323 728.861633 559.904236 728.623108 558.310547 728.207031 C 555.992432 727.601746 548.407349 724.227478 541.453125 720.708984 C 534.498901 717.190491 525.782104 711.875122 522.083984 708.896484 C 517.656067 705.329895 513.949097 700.60199 511.226563 695.050781 C 508.901672 690.310364 506.483276 682.317627 505.699219 676.787109 C 504.932465 671.378235 503.944458 659.051208 503.505859 649.392578 C 503.067322 639.733948 501.803772 624.085022 500.697266 614.617188 C 499.59079 605.149353 498.003723 591.871948 497.169922 585.113281 C 496.336121 578.354675 494.262634 566.1875 492.5625 558.074219 C 490.343018 547.482666 488.891968 543.322266 487.417969 543.322266 C 486.065735 543.322266 484.321625 546.966614 482.306641 554 C 480.624115 559.872925 477.611389 571.885193 475.611328 580.693359 C 473.611359 589.501648 470.344696 604.294128 468.351563 613.566406 C 466.358459 622.838623 463.774994 634.051697 462.611328 638.482422 C 461.44754 642.913086 459.528076 650.183472 458.345703 654.638672 C 457.163422 659.093933 455.089508 665.282837 453.736328 668.392578 C 452.383148 671.502319 447.785156 677.82428 443.519531 682.441406 C 439.253937 687.058594 434.031799 694.312744 431.914063 698.5625 C 429.796265 702.812317 426.074463 708.421509 423.644531 711.027344 C 421.2146 713.63324 416.066559 717.262207 412.203125 719.091797 C 407.97934 721.09198 402.575989 722.42334 398.652344 722.431641 C 395.063477 722.439209 387.945557 721.154968 382.833984 719.576172 C 376.743835 717.695068 371.971191 715.129395 368.988281 712.134766 C 366.484711 709.621399 362.901459 704.11853 361.025391 699.904297 C 359.149384 695.690002 356.774963 690.834778 355.748047 689.115234 C 354.10376 686.361938 353.447388 686.184509 350.255859 687.638672 C 347.99527 688.66864 345.034454 692.489319 342.384766 697.791016 C 340.04837 702.465759 336.573151 708.370422 334.664063 710.912109 C 332.754974 713.453735 328.874146 717.034973 326.039063 718.871094 C 323.203979 720.707275 317.799133 723.230957 314.027344 724.480469 C 307.942688 726.496155 306.358765 726.527893 299.978516 724.751953 C 296.023407 723.651062 290.042297 722.347717 286.6875 721.857422 C 283.332611 721.367249 278.273926 719.771912 275.447266 718.3125 C 272.620514 716.853027 267.97049 713.236511 265.113281 710.273438 C 262.256104 707.310364 258.241211 701.211548 256.191406 696.722656 C 254.141693 692.233765 251.273346 682.435059 249.816406 674.947266 C 248.359467 667.459412 245.898315 651.535278 244.347656 639.558594 C 242.796997 627.581848 240.867355 607.982605 240.058594 596.005859 C 239.249817 584.029114 237.914124 538.195374 237.091797 494.152344 C 236.269562 450.109314 235.979431 402.37677 236.447266 388.082031 C 236.9151 373.787292 237.925919 356.225159 238.693359 349.054688 C 239.533432 341.205322 241.218353 333.803711 242.927734 330.453125 C 244.93895 326.510742 247.733871 323.890869 252.509766 321.470703 C 258.79892 318.283752 259.409119 317.485107 261.607422 309.578125 C 262.956329 304.726624 265.768066 299.048035 268.183594 296.296875 C 270.798981 293.318115 274.560608 290.942627 278.074219 290.050781 C 281.373627 289.213318 286.405487 286.158081 290.111328 282.742188 C 293.613708 279.513733 301.066772 274.69397 306.673828 272.03125 C 312.280762 269.368408 319.984131 266.828491 323.792969 266.388672 C 328.032684 265.89917 334.490387 266.473083 340.445313 267.867188 C 345.794922 269.119629 353.589539 272.098938 357.765625 274.488281 C 362.249878 277.053955 367.860291 282.020935 371.470703 286.621094 C 374.832947 290.904968 379.613647 299.207275 382.09375 305.070313 C 385.125336 312.237183 387.669983 322.17511 389.859375 335.398438 C 391.650482 346.216125 393.751465 359.176697 394.529297 364.199219 C 395.307037 369.22168 397.602509 383.130676 399.628906 395.107422 C 401.655212 407.084167 404.290344 420.858948 405.484375 425.71875 C 406.746307 430.85498 408.313171 434.33606 409.226563 434.033203 C 410.09082 433.746582 411.796204 429.770508 413.015625 425.197266 C 414.235016 420.624084 416.63324 410.093567 418.345703 401.794922 C 420.058167 393.496338 422.718872 380.56427 424.259766 373.058594 C 425.800659 365.552856 428.046692 353.061584 429.25 345.298828 C 430.453308 337.536133 433.085419 327.455261 435.099609 322.898438 C 437.837982 316.70343 440.422211 313.421692 445.339844 309.888672 C 450.690247 306.0448 452.22049 303.952881 453.552734 298.662109 C 454.727997 293.99469 457.25354 290.010193 462.498047 284.552734 C 468.114258 278.708496 471.75708 276.29303 478.234375 274.117188 C 483.459747 272.361816 489.731781 271.384583 494.740234 271.544922 C 499.183167 271.687195 505.505096 271.822327 508.789063 271.84375 C 512.072998 271.865173 518.23645 271.413391 522.486328 270.839844 C 528.818481 269.985229 531.733521 270.370178 538.632813 272.972656 C 544.660645 275.246338 549.049255 278.231079 554.085938 283.480469 C 557.955139 287.513 564.162781 295.270386 567.880859 300.720703 C 571.59906 306.170898 577.775024 318.041321 581.605469 327.099609 C 585.435913 336.157959 589.526062 347.421692 590.695313 352.128906 C 591.864502 356.83606 595.345276 371.925171 598.429688 385.660156 C 601.514099 399.395142 605.312805 418.67572 606.871094 428.507813 C 608.429382 438.339905 611.238403 454.920288 613.113281 465.351563 C 614.988159 475.782898 618.12854 492.220276 620.091797 501.878906 C 622.054993 511.537537 625.608032 528.92334 627.986328 540.513672 C 630.364685 552.104004 633.561157 566.905334 635.091797 573.40625 C 636.622253 579.907104 638.490967 590.022644 639.244141 595.884766 C 639.997253 601.746948 640.982483 612.597229 641.433594 619.998047 C 642.030151 629.783997 641.610657 636.682312 639.894531 645.287109 C 638.59668 651.794678 635.735107 661.008728 633.535156 665.761719 C 631.335327 670.514771 626.0224 678.223877 621.728516 682.894531 C 617.43457 687.565247 612.040527 695.111206 609.742188 699.664063 C 607.29718 704.507568 602.431091 710.80603 598.011719 714.84375 C 592.86438 719.546692 587.575562 722.76123 581.404297 724.9375 C 576.42395 726.693787 570.138672 728.395142 567.4375 728.71875 C 566.593384 728.819885 565.611023 728.866882 564.589844 728.865234 Z M 585.947266 682.662109 C 586.141846 682.663757 586.336365 682.663147 586.529297 682.662109 C 587.24176 682.658203 587.940918 682.635498 588.601563 682.591797 C 592.125 682.358643 598.037903 680.654724 601.742188 678.804688 C 605.446411 676.954773 610.091431 673.531494 612.064453 671.197266 C 614.037598 668.863098 617.140625 663.597778 618.960938 659.496094 C 620.781189 655.394409 622.988464 647.807251 623.865234 642.636719 C 624.789978 637.182739 625.143555 626.453186 624.707031 617.080078 C 624.139038 604.88324 621.497986 588.699707 613.933594 551.048828 C 608.422485 523.618286 602.942871 496.433899 601.755859 490.638672 C 600.568909 484.843506 597.66748 469.354431 595.308594 456.21875 C 592.949585 443.083069 590.444946 428.552124 589.742188 423.925781 C 589.039368 419.299377 586.6026 406.338806 584.328125 395.125 C 582.053711 383.911194 577.947388 366.5177 575.203125 356.472656 C 572.016357 344.80835 567.452087 332.623718 562.570313 322.753906 C 557.871338 313.25354 552.106934 304.137573 547.607422 299.089844 C 543.581909 294.573853 538.289429 289.925049 535.845703 288.759766 C 532.628967 287.22583 529.10675 286.884521 523.082031 287.519531 C 518.505188 288.001953 508.046906 288.327454 499.84375 288.242188 C 487.270325 288.111633 484.023682 288.549988 479.152344 291.035156 C 475.974182 292.656555 472.434418 295.796936 471.287109 298.015625 C 470.139709 300.234314 467.977936 308.922119 466.482422 317.320313 C 464.986969 325.718506 462.34726 340.174988 460.617188 349.447266 C 458.887238 358.719482 454.975586 377.370483 451.925781 390.892578 C 448.875916 404.414612 444.602875 423.697205 442.429688 433.742188 C 440.256409 443.787231 435.915894 463.06781 432.783203 476.589844 C 429.650482 490.111938 425.373688 509.077698 423.279297 518.736328 C 421.184998 528.394958 418.608795 538.471069 417.554688 541.126953 C 415.838715 545.450562 415.414917 545.731384 413.5 543.816406 C 412.193878 542.510376 408.378387 526.956726 403.699219 503.865234 C 399.485077 483.068481 394.109039 455.305603 391.753906 442.169922 C 389.398834 429.034241 385.281616 406.274841 382.603516 391.59375 C 379.925385 376.912598 376.814301 358.580444 375.689453 350.853516 C 374.564636 343.126648 373.070557 332.030518 372.371094 326.197266 C 371.430634 318.35321 369.87262 313.415344 366.386719 307.232422 C 363.794403 302.634338 359.558899 296.528503 356.974609 293.664063 C 354.109802 290.488525 349.282043 287.335632 344.605469 285.585938 C 339.844147 283.804443 333.624817 282.726929 328.207031 282.746094 C 322.608826 282.76593 317.313019 283.760681 313.4375 285.519531 C 310.114349 287.027771 305.63327 290.024963 303.478516 292.179688 C 301.287659 294.370544 298.17157 300.269348 296.410156 305.5625 C 295.780792 307.453735 295.092834 309.216736 294.427734 310.699219 L 294.853516 311.052734 L 294.195313 338.101563 L 294.21875 354.837891 L 294.892578 391.714844 L 291.976563 388.521484 L 292.287109 385.796875 L 291.394531 353.716797 L 291.394531 353.701172 L 291.394531 353.675781 L 291.394531 353.644531 L 291.394531 353.599609 L 291.394531 353.544922 L 291.375 353.490234 L 291.357422 353.40625 L 291.357422 353.314453 L 291.357422 353.214844 L 291.357422 353.087891 L 291.357422 352.951172 L 291.378906 352.787109 L 291.402344 352.554688 L 291.402344 352.271484 L 291.427734 351.984375 L 291.453125 351.753906 L 291.453125 351.611328 L 291.472656 351.486328 L 291.492188 351.328125 L 291.492188 351.144531 L 291.492188 350.980469 L 291.492188 350.845703 L 291.470703 350.695313 L 291.441406 350.515625 L 291.419922 350.320313 L 291.382813 350.101563 L 291.345703 349.878906 L 291.298828 349.646484 L 291.244141 349.417969 L 291.197266 349.189453 L 291.171875 348.974609 L 291.150391 348.789063 L 291.128906 348.574219 L 291.128906 348.304688 L 291.128906 347.976563 L 291.128906 347.595703 L 291.121094 347.242188 L 291.095703 346.925781 L 291.068359 346.607422 L 291.042969 346.285156 L 291.013672 346.003906 L 290.988281 345.736328 L 290.951172 345.451172 L 290.927734 345.140625 L 290.927734 344.710938 L 290.927734 344.259766 L 290.927734 343.833984 L 290.927734 343.373047 L 290.927734 342.837891 L 290.927734 342.234375 L 290.927734 341.638672 L 290.927734 341.044922 L 290.927734 340.457031 L 290.927734 339.837891 L 290.927734 339.179688 L 290.894531 338.498047 L 290.861328 337.744141 L 290.861328 337.039063 L 290.861328 336.464844 L 290.861328 335.917969 L 290.861328 335.419922 L 290.861328 334.970703 L 290.861328 334.511719 L 290.861328 334.029297 L 290.886719 333.576172 L 290.912109 333.162109 L 290.912109 332.751953 L 290.912109 332.339844 L 290.912109 331.826172 L 290.912109 331.273438 L 290.912109 330.787109 L 290.90625 330.320313 L 290.878906 329.931641 L 290.855469 329.509766 L 290.855469 329.044922 L 290.855469 328.621094 L 290.855469 328.25 L 290.855469 327.935547 L 290.855469 327.615234 L 290.855469 327.294922 L 290.855469 326.990234 L 290.886719 326.664063 L 290.933594 326.320313 L 290.958984 325.970703 L 290.966797 325.613281 L 290.992188 325.283203 L 291.019531 324.984375 L 291.019531 324.695313 L 291.019531 324.451172 L 291.019531 324.205078 L 291.019531 323.921875 L 291.019531 323.662109 L 291.019531 323.388672 L 291.019531 323.152344 L 291.019531 322.939453 L 290.994141 322.675781 L 290.96875 322.369141 L 290.943359 322.076172 L 290.894531 321.800781 L 290.873047 321.525391 L 290.867188 321.277344 L 290.833984 321.013672 L 290.763672 320.746094 L 290.699219 320.525391 L 290.650391 320.279297 L 290.599609 319.978516 L 290.535156 319.621094 L 290.453125 319.216797 L 290.386719 318.832031 L 290.328125 318.380859 L 290.244141 317.867188 L 290.097656 317.285156 L 289.923828 316.539063 L 289.679688 315.783203 L 289.400391 315.039063 L 289.1875 314.302734 L 288.996094 313.652344 L 288.90625 313.167969 L 289.1875 312.689453 C 288.860504 312.124023 288.554688 311.489014 288.300781 310.816406 C 287.426483 308.500122 285.657837 306.200745 284.371094 305.707031 C 283.084351 305.213318 281.188324 305.686218 280.15625 306.757813 C 279.124207 307.829346 277.610565 313.447021 276.792969 319.242188 C 275.975281 325.037415 274.980255 337.049622 274.582031 345.935547 C 274.183746 354.821533 274.473755 398.126892 275.226563 442.169922 C 275.979401 486.212952 277.210632 536.473877 277.962891 553.859375 C 278.715149 571.244934 280.926544 598.11261 282.876953 613.566406 C 284.827301 629.020203 287.451691 645.943604 288.708984 651.173828 C 289.966309 656.403992 292.346283 662.66803 293.998047 665.09375 C 295.649811 667.519409 298.636139 670.715515 300.634766 672.195313 C 302.633453 673.675171 307.058563 675.206604 310.46875 675.599609 C 313.879028 675.992676 319.610962 677.314087 323.205078 678.535156 C 328.69574 680.400452 330.436737 680.466431 334.099609 678.949219 C 336.497375 677.955994 340.334991 675.005249 342.628906 672.392578 C 344.922821 669.779968 347.841461 664.06427 349.113281 659.689453 C 351.216583 652.454224 351.271423 646.961426 349.722656 598.933594 C 348.786102 569.893005 347.847321 536.334167 347.636719 524.357422 C 347.426147 512.380676 347.685028 502.095337 348.212891 501.501953 C 348.740753 500.90863 350.837769 505.650574 352.871094 512.039063 C 354.904541 518.427612 359.143311 533.138184 362.291016 544.728516 C 365.438812 556.318848 370.290588 573.702698 373.074219 583.361328 C 375.857941 593.019897 379.966309 607.87738 382.203125 616.376953 C 384.440002 624.876526 388.792389 639.850464 391.875 649.652344 C 396.090454 663.056519 398.367035 668.172668 401.0625 670.292969 C 403.033569 671.843445 408.083771 673.882019 412.285156 674.822266 C 418.311249 676.170837 421.145721 676.164612 425.710938 674.796875 C 428.89389 673.843201 432.892426 671.560425 434.595703 669.722656 C 436.29892 667.884827 438.867462 662.71698 440.304688 658.238281 C 441.741913 653.759644 444.068939 647.325317 445.474609 643.941406 C 446.880249 640.557434 449.630219 629.810364 451.585938 620.058594 C 453.541595 610.306885 457.118042 594.109497 459.533203 584.064453 C 461.948364 574.01947 465.284851 559.478821 466.949219 551.751953 C 468.613495 544.025024 472.691772 527.904419 476.009766 515.927734 C 479.327881 503.950989 484.742859 485.300049 488.042969 474.482422 C 491.34314 463.664734 495.731049 449.25061 497.794922 442.451172 C 498.101288 441.441833 498.414429 440.469604 498.728516 439.535156 L 498.324219 439.255859 L 504.765625 417.574219 L 506.839844 416.652344 L 510.25 438.076172 L 509.419922 438.724609 C 510.355011 442.415894 511.440948 446.923889 512.535156 451.722656 C 515.037048 462.69519 519.28833 480.840942 521.980469 492.044922 C 524.672607 503.248901 528.086914 518.421204 529.568359 525.761719 C 531.049927 533.102234 533.564087 547.959717 535.15625 558.777344 C 536.748535 569.595032 538.938721 586.978882 540.023438 597.410156 C 541.108093 607.841431 542.430847 624.595581 542.962891 634.640625 C 543.770996 649.895447 544.486694 654.012756 547.306641 659.628906 C 549.163513 663.327087 552.715088 667.632446 555.199219 669.197266 C 557.683289 670.762146 561.221069 672.651855 563.060547 673.396484 C 564.899963 674.141113 568.245056 676.060608 570.494141 677.662109 C 572.743286 679.263611 576.295715 681.123291 578.388672 681.794922 C 579.98291 682.30658 583.02887 682.636963 585.947266 682.662109 Z M 463.804688 541.851563 L 462.201172 539.882813 L 467.917969 512.595703 L 476.072266 479.730469 L 485.275391 444.429688 L 497.1875 404.886719 L 500.779297 394.666016 L 502.775391 404.527344 L 500.078125 414.251953 L 490.082031 445.494141 L 480.283203 478.498047 L 468.615234 522.472656 L 463.804688 541.851563 Z M 372.722656 444.587891 C 372.351166 444.5849 371.809937 443.334045 371.044922 440.765625 C 370.124268 437.674866 366.875275 424.714233 363.826172 411.964844 C 360.777069 399.215393 355.692322 378.038025 352.525391 364.902344 C 349.35849 351.766602 346.949005 339.122803 347.171875 336.804688 C 347.499603 333.397278 348.302277 332.505737 351.363281 332.152344 C 354.696045 331.767578 355.317322 332.355225 356.548828 337.068359 C 357.318329 340.013123 358.599548 347.165771 359.396484 352.960938 C 360.19342 358.756104 362.072113 370.134766 363.570313 378.248047 C 365.06839 386.361328 367.329559 399.005188 368.595703 406.345703 C 369.861877 413.686218 371.512421 424.43335 372.263672 430.228516 C 373.014893 436.023682 373.424377 442.030823 373.173828 443.576172 C 373.064728 444.24884 372.917236 444.589478 372.722656 444.587891 Z"/>
        </g>
    </g>
</svg>
